<svg xmlns="http://www.w3.org/2000/svg" xmlns:xlink="http://www.w3.org/1999/xlink" width="1000" zoomAndPan="magnify" viewBox="0 0 750 153.750002" height="205" preserveAspectRatio="xMidYMid meet" version="1.0"><defs><g/><clipPath id="76ce036ed2"><path d="M 123 29 L 159.351562 29 L 159.351562 76 L 123 76 Z M 123 29 " clip-rule="nonzero"/></clipPath><clipPath id="05f180a25f"><path d="M 165 23 L 749.390625 23 L 749.390625 129 L 165 129 Z M 165 23 " clip-rule="nonzero"/></clipPath><clipPath id="56a4554b1c"><path d="M 533 36 L 583 36 L 583 105.910156 L 533 105.910156 Z M 533 36 " clip-rule="nonzero"/></clipPath><clipPath id="72ca82f1e7"><rect x="0" width="585" y="0" height="106"/></clipPath></defs><path fill="#000000" d="M 73.867188 69.484375 C 87.003906 62.742188 103.246094 63.339844 116.695312 69.449219 C 130.140625 75.554688 140.890625 86.722656 148.179688 99.554688 C 150.636719 103.878906 152.785156 108.652344 152.480469 113.613281 C 152.203125 118.128906 149.828125 122.394531 146.398438 125.355469 C 142.96875 128.3125 138.554688 130.015625 134.058594 130.578125 C 130.328125 131.042969 126.261719 130.660156 123.296875 128.351562 C 118.457031 124.582031 112.597656 121.316406 106.503906 122.058594 C 103.1875 122.460938 100.105469 124.039062 97.429688 126.035156 C 92.5 129.71875 88.738281 134.9375 86.800781 140.773438 C 86.257812 142.402344 85.851562 144.097656 85.007812 145.597656 C 83.964844 147.453125 82.304688 148.910156 80.464844 149.992188 C 74.503906 153.496094 66.675781 153.046875 60.65625 149.644531 C 54.636719 146.246094 50.367188 140.222656 48.203125 133.660156 C 46.039062 127.101562 45.839844 120.027344 46.605469 113.160156 C 48.59375 95.398438 57.949219 77.65625 73.867188 69.484375 Z M 73.867188 69.484375 " fill-opacity="1" fill-rule="nonzero"/><path fill="#000000" d="M 59.007812 68.257812 C 55.4375 70.574219 50.828125 70.960938 46.703125 69.890625 C 42.582031 68.820312 38.910156 66.414062 35.769531 63.539062 C 28.355469 56.753906 23.625 47.117188 22.796875 37.105469 C 22.515625 33.707031 22.675781 30.234375 23.710938 26.984375 C 24.746094 23.734375 26.714844 20.71875 29.539062 18.804688 C 33.128906 16.367188 37.832031 15.921875 42.039062 16.992188 C 46.242188 18.0625 49.984375 20.523438 53.171875 23.464844 C 60.464844 30.199219 65.132812 39.703125 66 49.585938 C 66.304688 53.066406 66.148438 56.628906 65.070312 59.953125 C 63.996094 63.277344 61.941406 66.355469 59.007812 68.257812 Z M 59.007812 68.257812 " fill-opacity="1" fill-rule="nonzero"/><path fill="#000000" d="M 92.753906 0.125 C 96.242188 0 99.683594 1.398438 102.402344 3.585938 C 105.125 5.773438 107.167969 8.707031 108.714844 11.835938 C 111.886719 18.246094 113.0625 25.554688 112.554688 32.691406 C 112.148438 38.359375 110.667969 44.027344 107.667969 48.855469 C 104.878906 53.351562 100.417969 57.203125 95.144531 57.636719 C 91.242188 57.957031 87.34375 56.335938 84.386719 53.777344 C 81.429688 51.214844 79.34375 47.777344 77.828125 44.175781 C 73.835938 34.714844 73.605469 23.730469 77.199219 14.109375 C 78.492188 10.644531 80.292969 7.3125 82.917969 4.703125 C 85.542969 2.09375 89.050781 0.257812 92.753906 0.125 Z M 92.753906 0.125 " fill-opacity="1" fill-rule="nonzero"/><g clip-path="url(#76ce036ed2)"><path fill="#000000" d="M 151.804688 67.394531 C 149.394531 70.332031 146.390625 72.875 142.835938 74.222656 C 139.277344 75.570312 135.128906 75.617188 131.773438 73.824219 C 130.410156 73.097656 129.203125 72.085938 128.191406 70.917969 C 125.25 67.515625 124.046875 62.902344 123.878906 58.414062 C 123.59375 50.65625 126.242188 42.828125 131.179688 36.839844 C 133.449219 34.085938 136.234375 31.683594 139.523438 30.300781 C 142.816406 28.917969 146.648438 28.632812 149.957031 29.972656 C 152.949219 31.183594 155.335938 33.652344 156.816406 36.523438 C 158.296875 39.390625 158.925781 42.636719 159.050781 45.863281 C 159.34375 53.597656 156.71875 61.40625 151.804688 67.394531 Z M 151.804688 67.394531 " fill-opacity="1" fill-rule="nonzero"/></g><path fill="#000000" d="M 19.0625 110.714844 C 12.90625 108.363281 7.648438 103.75 4.519531 97.957031 C 1.601562 92.5625 0.601562 85.804688 3.285156 80.289062 C 3.925781 78.976562 4.761719 77.753906 5.757812 76.679688 C 8.402344 73.824219 12.140625 72.082031 16 71.574219 C 19.863281 71.0625 23.828125 71.742188 27.4375 73.203125 C 31.914062 75.011719 35.878906 78.019531 38.925781 81.761719 C 41.75 85.234375 43.8125 89.410156 44.34375 93.851562 C 44.875 98.292969 43.777344 103.003906 40.9375 106.460938 C 38.421875 109.527344 34.667969 111.464844 30.75 112.101562 C 26.832031 112.738281 22.769531 112.128906 19.0625 110.714844 Z M 19.0625 110.714844 " fill-opacity="1" fill-rule="nonzero"/><g clip-path="url(#05f180a25f)"><g transform="matrix(1, 0, 0, 1, 165, 23)"><g clip-path="url(#72ca82f1e7)"><g fill="#000000" fill-opacity="1"><g transform="translate(0.865276, 84.737451)"><g><path d="M 9.859375 0.359375 C 9.265625 0.359375 8.484375 0.328125 7.515625 0.265625 C 6.554688 0.203125 5.601562 0.113281 4.65625 0 C 4.070312 -0.113281 3.5625 -0.375 3.125 -0.78125 C 2.6875 -1.195312 2.46875 -1.757812 2.46875 -2.46875 C 2.46875 -7.570312 2.492188 -12.773438 2.546875 -18.078125 C 2.609375 -23.390625 2.695312 -28.582031 2.8125 -33.65625 C 2.925781 -38.726562 3.085938 -43.460938 3.296875 -47.859375 C 3.503906 -52.265625 3.753906 -56.109375 4.046875 -59.390625 C 4.222656 -60.679688 4.957031 -61.414062 6.25 -61.59375 C 7.070312 -61.769531 7.789062 -61.867188 8.40625 -61.890625 C 9.019531 -61.921875 9.617188 -61.9375 10.203125 -61.9375 C 10.960938 -61.9375 11.78125 -61.90625 12.65625 -61.84375 C 13.539062 -61.789062 14.367188 -61.707031 15.140625 -61.59375 C 16.660156 -61.300781 17.363281 -60.507812 17.25 -59.21875 C 17.007812 -56.695312 16.785156 -54.144531 16.578125 -51.5625 C 16.378906 -48.976562 16.28125 -46.046875 16.28125 -42.765625 C 16.28125 -40.410156 17.082031 -38.851562 18.6875 -38.09375 C 20.300781 -37.332031 22.398438 -36.894531 24.984375 -36.78125 C 26.160156 -36.71875 27.628906 -36.6875 29.390625 -36.6875 C 31.148438 -36.6875 32.613281 -36.71875 33.78125 -36.78125 C 36.425781 -36.894531 38.613281 -37.332031 40.34375 -38.09375 C 42.070312 -38.851562 42.9375 -40.410156 42.9375 -42.765625 C 42.9375 -46.046875 42.832031 -48.988281 42.625 -51.59375 C 42.425781 -54.207031 42.207031 -56.773438 41.96875 -59.296875 C 41.90625 -59.941406 42.09375 -60.5 42.53125 -60.96875 C 42.976562 -61.4375 43.492188 -61.703125 44.078125 -61.765625 C 44.960938 -61.878906 45.875 -61.953125 46.8125 -61.984375 C 47.75 -62.015625 48.507812 -62.03125 49.09375 -62.03125 C 49.625 -62.03125 50.210938 -62.015625 50.859375 -61.984375 C 51.503906 -61.953125 52.207031 -61.878906 52.96875 -61.765625 C 54.375 -61.472656 55.109375 -60.710938 55.171875 -59.484375 C 55.460938 -56.191406 55.707031 -52.347656 55.90625 -47.953125 C 56.113281 -43.554688 56.289062 -38.816406 56.4375 -33.734375 C 56.582031 -28.660156 56.6875 -23.457031 56.75 -18.125 C 56.8125 -12.789062 56.84375 -7.570312 56.84375 -2.46875 C 56.84375 -1.757812 56.609375 -1.195312 56.140625 -0.78125 C 55.671875 -0.375 55.140625 -0.113281 54.546875 0 C 53.609375 0.113281 52.640625 0.203125 51.640625 0.265625 C 50.648438 0.328125 49.859375 0.359375 49.265625 0.359375 C 48.742188 0.359375 47.804688 0.328125 46.453125 0.265625 C 45.109375 0.203125 44.050781 0.144531 43.28125 0.09375 C 42.695312 -0.03125 42.1875 -0.328125 41.75 -0.796875 C 41.3125 -1.265625 41.148438 -1.878906 41.265625 -2.640625 C 41.671875 -5.566406 42.019531 -8.46875 42.3125 -11.34375 C 42.613281 -14.21875 42.765625 -17.035156 42.765625 -19.796875 C 42.765625 -22.023438 41.957031 -23.519531 40.34375 -24.28125 C 38.726562 -25.039062 36.570312 -25.453125 33.875 -25.515625 C 32.695312 -25.578125 31.195312 -25.609375 29.375 -25.609375 C 27.5625 -25.609375 26.070312 -25.578125 24.90625 -25.515625 C 22.257812 -25.453125 20.1875 -25.039062 18.6875 -24.28125 C 17.195312 -23.519531 16.453125 -22.023438 16.453125 -19.796875 C 16.453125 -17.097656 16.582031 -14.296875 16.84375 -11.390625 C 17.113281 -8.484375 17.453125 -5.566406 17.859375 -2.640625 C 17.972656 -1.878906 17.828125 -1.265625 17.421875 -0.796875 C 17.015625 -0.328125 16.515625 -0.03125 15.921875 0.09375 C 15.160156 0.144531 14.085938 0.203125 12.703125 0.265625 C 11.328125 0.328125 10.378906 0.359375 9.859375 0.359375 Z M 9.859375 0.359375 "/></g></g></g><g fill="#000000" fill-opacity="1"><g transform="translate(60.071204, 84.737451)"><g><path d="M 21.640625 0.703125 C 14.953125 0.703125 10.050781 -1.40625 6.9375 -5.625 C 3.832031 -9.851562 2.28125 -15.570312 2.28125 -22.78125 C 2.28125 -26.125 2.382812 -29.554688 2.59375 -33.078125 C 2.800781 -36.597656 3.109375 -40.707031 3.515625 -45.40625 C 3.578125 -46.8125 4.28125 -47.660156 5.625 -47.953125 C 6.332031 -48.066406 7.125 -48.148438 8 -48.203125 C 8.882812 -48.265625 9.53125 -48.296875 9.9375 -48.296875 C 10.53125 -48.296875 11.394531 -48.265625 12.53125 -48.203125 C 13.675781 -48.148438 14.660156 -48.066406 15.484375 -47.953125 C 16.066406 -47.835938 16.5625 -47.570312 16.96875 -47.15625 C 17.382812 -46.75 17.535156 -46.191406 17.421875 -45.484375 C 17.128906 -43.429688 16.820312 -41.1875 16.5 -38.75 C 16.175781 -36.320312 15.910156 -33.929688 15.703125 -31.578125 C 15.492188 -29.234375 15.390625 -27.210938 15.390625 -25.515625 C 15.390625 -20.828125 16.300781 -17.144531 18.125 -14.46875 C 19.945312 -11.800781 22.878906 -10.46875 26.921875 -10.46875 C 30.085938 -10.46875 32.640625 -11.890625 34.578125 -14.734375 C 36.515625 -17.578125 37.484375 -21.375 37.484375 -26.125 C 37.484375 -28.707031 37.347656 -31.757812 37.078125 -35.28125 C 36.816406 -38.800781 36.394531 -42.175781 35.8125 -45.40625 C 35.695312 -46.101562 35.84375 -46.671875 36.25 -47.109375 C 36.65625 -47.554688 37.125 -47.835938 37.65625 -47.953125 C 38.300781 -48.066406 39.148438 -48.148438 40.203125 -48.203125 C 41.265625 -48.265625 42.144531 -48.296875 42.84375 -48.296875 C 43.664062 -48.296875 44.515625 -48.265625 45.390625 -48.203125 C 46.273438 -48.148438 47.097656 -48.066406 47.859375 -47.953125 C 49.097656 -47.773438 49.800781 -46.925781 49.96875 -45.40625 C 50.320312 -40.300781 50.585938 -35.828125 50.765625 -31.984375 C 50.941406 -28.140625 51.070312 -24.617188 51.15625 -21.421875 C 51.25 -18.222656 51.28125 -15.113281 51.25 -12.09375 C 51.21875 -9.070312 51.203125 -5.800781 51.203125 -2.28125 C 51.203125 -1 50.617188 -0.207031 49.453125 0.09375 C 48.859375 0.207031 48.164062 0.289062 47.375 0.34375 C 46.582031 0.40625 45.804688 0.4375 45.046875 0.4375 C 44.285156 0.4375 43.460938 0.390625 42.578125 0.296875 C 41.703125 0.210938 40.851562 0.144531 40.03125 0.09375 C 39.445312 -0.03125 38.960938 -0.3125 38.578125 -0.75 C 38.203125 -1.1875 38.070312 -1.726562 38.1875 -2.375 C 38.300781 -3.195312 38.375 -3.988281 38.40625 -4.75 C 38.4375 -5.507812 38.453125 -6.1875 38.453125 -6.78125 C 38.453125 -7.769531 38.257812 -8.296875 37.875 -8.359375 C 37.5 -8.421875 37.070312 -8.039062 36.59375 -7.21875 C 34.71875 -4.457031 32.5625 -2.445312 30.125 -1.1875 C 27.695312 0.0703125 24.867188 0.703125 21.640625 0.703125 Z M 21.640625 0.703125 "/></g></g></g><g fill="#000000" fill-opacity="1"><g transform="translate(112.767022, 84.737451)"><g><path d="M 27.1875 0.703125 C 22.019531 0.703125 17.515625 -0.273438 13.671875 -2.234375 C 9.835938 -4.203125 6.863281 -7.0625 4.75 -10.8125 C 2.632812 -14.570312 1.578125 -19.117188 1.578125 -24.453125 C 1.578125 -29.617188 2.585938 -33.988281 4.609375 -37.5625 C 6.640625 -41.144531 9.414062 -43.875 12.9375 -45.75 C 16.457031 -47.625 20.445312 -48.5625 24.90625 -48.5625 C 31.113281 -48.5625 36.140625 -47.164062 39.984375 -44.375 C 43.828125 -41.59375 45.75 -37.503906 45.75 -32.109375 C 45.75 -29.234375 44.972656 -26.695312 43.421875 -24.5 C 41.867188 -22.300781 39.816406 -20.597656 37.265625 -19.390625 C 34.710938 -18.191406 31.96875 -17.59375 29.03125 -17.59375 C 26.625 -17.59375 24.289062 -17.796875 22.03125 -18.203125 C 19.78125 -18.617188 17.800781 -19.296875 16.09375 -20.234375 C 15.21875 -20.816406 14.570312 -20.859375 14.15625 -20.359375 C 13.75 -19.867188 13.835938 -19.210938 14.421875 -18.390625 C 15.128906 -16.742188 16.257812 -15.273438 17.8125 -13.984375 C 19.363281 -12.691406 21.132812 -11.679688 23.125 -10.953125 C 25.125 -10.222656 27.125 -9.859375 29.125 -9.859375 C 31.40625 -9.859375 33.835938 -10.351562 36.421875 -11.34375 C 39.003906 -12.34375 41.117188 -13.609375 42.765625 -15.140625 C 43.410156 -15.953125 44.097656 -16.226562 44.828125 -15.96875 C 45.554688 -15.707031 45.953125 -14.988281 46.015625 -13.8125 C 46.128906 -12.519531 46.203125 -11.195312 46.234375 -9.84375 C 46.265625 -8.5 46.3125 -7.179688 46.375 -5.890625 C 46.375 -4.773438 45.988281 -3.984375 45.21875 -3.515625 C 43.050781 -2.046875 40.28125 -0.972656 36.90625 -0.296875 C 33.53125 0.367188 30.289062 0.703125 27.1875 0.703125 Z M 25.609375 -24.375 C 28.128906 -24.375 30.117188 -25.003906 31.578125 -26.265625 C 33.046875 -27.523438 33.78125 -29.238281 33.78125 -31.40625 C 33.78125 -33.695312 33.101562 -35.488281 31.75 -36.78125 C 30.40625 -38.070312 28.179688 -38.71875 25.078125 -38.71875 C 23.316406 -38.71875 21.582031 -38.347656 19.875 -37.609375 C 18.175781 -36.878906 16.785156 -35.835938 15.703125 -34.484375 C 14.617188 -33.140625 14.078125 -31.5 14.078125 -29.5625 C 14.078125 -28.382812 14.722656 -27.398438 16.015625 -26.609375 C 17.304688 -25.816406 18.84375 -25.242188 20.625 -24.890625 C 22.414062 -24.546875 24.078125 -24.375 25.609375 -24.375 Z M 25.609375 -24.375 "/></g></g></g><g fill="#000000" fill-opacity="1"><g transform="translate(160.800376, 84.737451)"><g><path d="M 9.671875 0.359375 C 9.023438 0.359375 8.160156 0.328125 7.078125 0.265625 C 5.992188 0.203125 5.101562 0.113281 4.40625 0 C 3.113281 -0.289062 2.46875 -1.113281 2.46875 -2.46875 C 2.46875 -7.570312 2.492188 -12.863281 2.546875 -18.34375 C 2.609375 -23.832031 2.679688 -29.210938 2.765625 -34.484375 C 2.859375 -39.765625 3.003906 -44.707031 3.203125 -49.3125 C 3.410156 -53.914062 3.632812 -57.863281 3.875 -61.15625 C 4.050781 -62.4375 4.785156 -63.164062 6.078125 -63.34375 C 6.710938 -63.46875 7.441406 -63.554688 8.265625 -63.609375 C 9.085938 -63.671875 9.851562 -63.703125 10.5625 -63.703125 C 11.382812 -63.703125 12.351562 -63.671875 13.46875 -63.609375 C 14.582031 -63.554688 15.429688 -63.46875 16.015625 -63.34375 C 16.660156 -63.289062 17.171875 -63.015625 17.546875 -62.515625 C 17.929688 -62.015625 18.066406 -61.441406 17.953125 -60.796875 C 17.484375 -57.097656 17.085938 -52.769531 16.765625 -47.8125 C 16.441406 -42.863281 16.207031 -37.691406 16.0625 -32.296875 C 15.914062 -26.898438 15.882812 -21.617188 15.96875 -16.453125 C 16.050781 -11.285156 16.242188 -6.625 16.546875 -2.46875 C 16.597656 -1.757812 16.429688 -1.1875 16.046875 -0.75 C 15.671875 -0.3125 15.191406 -0.03125 14.609375 0.09375 C 13.898438 0.144531 13.0625 0.203125 12.09375 0.265625 C 11.125 0.328125 10.316406 0.359375 9.671875 0.359375 Z M 9.671875 0.359375 "/></g></g></g><g fill="#000000" fill-opacity="1"><g transform="translate(181.034197, 84.737451)"><g><path d="M 9.671875 0.359375 C 9.023438 0.359375 8.160156 0.328125 7.078125 0.265625 C 5.992188 0.203125 5.101562 0.113281 4.40625 0 C 3.113281 -0.289062 2.46875 -1.113281 2.46875 -2.46875 C 2.46875 -7.570312 2.492188 -12.863281 2.546875 -18.34375 C 2.609375 -23.832031 2.679688 -29.210938 2.765625 -34.484375 C 2.859375 -39.765625 3.003906 -44.707031 3.203125 -49.3125 C 3.410156 -53.914062 3.632812 -57.863281 3.875 -61.15625 C 4.050781 -62.4375 4.785156 -63.164062 6.078125 -63.34375 C 6.710938 -63.46875 7.441406 -63.554688 8.265625 -63.609375 C 9.085938 -63.671875 9.851562 -63.703125 10.5625 -63.703125 C 11.382812 -63.703125 12.351562 -63.671875 13.46875 -63.609375 C 14.582031 -63.554688 15.429688 -63.46875 16.015625 -63.34375 C 16.660156 -63.289062 17.171875 -63.015625 17.546875 -62.515625 C 17.929688 -62.015625 18.066406 -61.441406 17.953125 -60.796875 C 17.484375 -57.097656 17.085938 -52.769531 16.765625 -47.8125 C 16.441406 -42.863281 16.207031 -37.691406 16.0625 -32.296875 C 15.914062 -26.898438 15.882812 -21.617188 15.96875 -16.453125 C 16.050781 -11.285156 16.242188 -6.625 16.546875 -2.46875 C 16.597656 -1.757812 16.429688 -1.1875 16.046875 -0.75 C 15.671875 -0.3125 15.191406 -0.03125 14.609375 0.09375 C 13.898438 0.144531 13.0625 0.203125 12.09375 0.265625 C 11.125 0.328125 10.316406 0.359375 9.671875 0.359375 Z M 9.671875 0.359375 "/></g></g></g><g fill="#000000" fill-opacity="1"><g transform="translate(201.268017, 84.737451)"><g><path d="M 9.5 -52.4375 C 7.332031 -52.4375 5.554688 -53.019531 4.171875 -54.1875 C 2.796875 -55.363281 2.109375 -56.863281 2.109375 -58.6875 C 2.109375 -60.5625 2.796875 -62.082031 4.171875 -63.25 C 5.554688 -64.425781 7.332031 -65.015625 9.5 -65.015625 C 11.726562 -65.015625 13.53125 -64.425781 14.90625 -63.25 C 16.289062 -62.082031 16.984375 -60.5625 16.984375 -58.6875 C 16.984375 -56.863281 16.289062 -55.363281 14.90625 -54.1875 C 13.53125 -53.019531 11.726562 -52.4375 9.5 -52.4375 Z M 9.671875 0.359375 C 9.203125 0.359375 8.441406 0.34375 7.390625 0.3125 C 6.335938 0.28125 5.425781 0.175781 4.65625 0 C 4.132812 -0.113281 3.679688 -0.390625 3.296875 -0.828125 C 2.921875 -1.273438 2.734375 -1.847656 2.734375 -2.546875 C 2.734375 -7.648438 2.742188 -12.148438 2.765625 -16.046875 C 2.796875 -19.953125 2.835938 -23.53125 2.890625 -26.78125 C 2.953125 -30.039062 3.039062 -33.179688 3.15625 -36.203125 C 3.28125 -39.222656 3.460938 -42.375 3.703125 -45.65625 C 3.753906 -46.425781 3.925781 -46.972656 4.21875 -47.296875 C 4.507812 -47.617188 4.953125 -47.804688 5.546875 -47.859375 C 6.191406 -47.984375 6.9375 -48.070312 7.78125 -48.125 C 8.632812 -48.1875 9.296875 -48.21875 9.765625 -48.21875 C 10.171875 -48.21875 10.753906 -48.1875 11.515625 -48.125 C 12.285156 -48.070312 12.960938 -47.984375 13.546875 -47.859375 C 14.128906 -47.742188 14.566406 -47.539062 14.859375 -47.25 C 15.160156 -46.957031 15.335938 -46.425781 15.390625 -45.65625 C 15.628906 -42.375 15.804688 -39.222656 15.921875 -36.203125 C 16.035156 -33.179688 16.125 -30.039062 16.1875 -26.78125 C 16.25 -23.53125 16.289062 -19.941406 16.3125 -16.015625 C 16.34375 -12.085938 16.359375 -7.570312 16.359375 -2.46875 C 16.359375 -1.757812 16.164062 -1.195312 15.78125 -0.78125 C 15.40625 -0.375 14.953125 -0.113281 14.421875 0 C 13.660156 0.113281 12.796875 0.203125 11.828125 0.265625 C 10.859375 0.328125 10.140625 0.359375 9.671875 0.359375 Z M 9.671875 0.359375 "/></g></g></g><g fill="#000000" fill-opacity="1"><g transform="translate(220.358182, 84.737451)"><g><path d="M 26.828125 0.703125 C 23.835938 0.703125 21.125 0.117188 18.6875 -1.046875 C 16.257812 -2.222656 14.328125 -3.984375 12.890625 -6.328125 C 11.453125 -8.679688 10.703125 -11.585938 10.640625 -15.046875 C 10.640625 -17.097656 10.671875 -19.414062 10.734375 -22 C 10.796875 -24.582031 10.882812 -27.207031 11 -29.875 C 11.113281 -32.539062 11.289062 -35.078125 11.53125 -37.484375 C 11.582031 -37.953125 11.429688 -38.332031 11.078125 -38.625 C 10.734375 -38.914062 10.351562 -39.0625 9.9375 -39.0625 C 8.882812 -39.0625 7.800781 -39.0625 6.6875 -39.0625 C 5.570312 -39.0625 4.488281 -39.035156 3.4375 -38.984375 C 2.789062 -38.921875 2.234375 -39.140625 1.765625 -39.640625 C 1.296875 -40.140625 1.0625 -40.710938 1.0625 -41.359375 L 1.0625 -45.484375 C 1.0625 -46.128906 1.296875 -46.6875 1.765625 -47.15625 C 2.234375 -47.625 2.789062 -47.859375 3.4375 -47.859375 L 9.9375 -47.859375 C 11 -47.859375 11.53125 -48.414062 11.53125 -49.53125 C 11.53125 -50.644531 11.554688 -51.800781 11.609375 -53 C 11.671875 -54.207031 11.757812 -55.367188 11.875 -56.484375 C 12.050781 -57.953125 12.785156 -58.773438 14.078125 -58.953125 C 14.835938 -59.066406 15.582031 -59.148438 16.3125 -59.203125 C 17.050781 -59.265625 17.773438 -59.296875 18.484375 -59.296875 C 19.242188 -59.296875 19.972656 -59.265625 20.671875 -59.203125 C 21.378906 -59.148438 22.113281 -59.066406 22.875 -58.953125 C 23.457031 -58.890625 23.984375 -58.640625 24.453125 -58.203125 C 24.921875 -57.765625 25.097656 -57.191406 24.984375 -56.484375 C 24.929688 -55.304688 24.828125 -54.175781 24.671875 -53.09375 C 24.523438 -52.007812 24.453125 -50.851562 24.453125 -49.625 C 24.453125 -48.445312 24.984375 -47.859375 26.046875 -47.859375 C 27.921875 -47.859375 30.070312 -47.875 32.5 -47.90625 C 34.9375 -47.9375 37.066406 -47.984375 38.890625 -48.046875 C 39.535156 -48.046875 40.09375 -47.804688 40.5625 -47.328125 C 41.03125 -46.859375 41.265625 -46.300781 41.265625 -45.65625 L 41.265625 -40.90625 C 41.265625 -40.257812 41.03125 -39.6875 40.5625 -39.1875 C 40.09375 -38.695312 39.535156 -38.476562 38.890625 -38.53125 C 38.128906 -38.65625 36.984375 -38.742188 35.453125 -38.796875 C 33.929688 -38.859375 32.40625 -38.914062 30.875 -38.96875 C 29.351562 -39.03125 28.179688 -39.035156 27.359375 -38.984375 C 25.253906 -38.984375 24.050781 -37.894531 23.75 -35.71875 C 23.519531 -32.664062 23.40625 -29.410156 23.40625 -25.953125 C 23.40625 -22.492188 23.429688 -19.472656 23.484375 -16.890625 C 23.609375 -14.609375 24.253906 -12.984375 25.421875 -12.015625 C 26.597656 -11.046875 28.035156 -10.5625 29.734375 -10.5625 C 30.441406 -10.5625 31.410156 -10.691406 32.640625 -10.953125 C 33.867188 -11.210938 35.082031 -11.535156 36.28125 -11.921875 C 37.488281 -12.304688 38.359375 -12.671875 38.890625 -13.015625 C 39.648438 -13.835938 40.441406 -14.039062 41.265625 -13.625 C 42.085938 -13.21875 42.46875 -12.398438 42.40625 -11.171875 C 42.40625 -9.878906 42.390625 -8.691406 42.359375 -7.609375 C 42.335938 -6.523438 42.328125 -5.394531 42.328125 -4.21875 C 42.265625 -2.875 41.734375 -1.96875 40.734375 -1.5 C 39.679688 -1.03125 38.289062 -0.617188 36.5625 -0.265625 C 34.832031 0.0859375 33.085938 0.335938 31.328125 0.484375 C 29.566406 0.628906 28.066406 0.703125 26.828125 0.703125 Z M 26.828125 0.703125 "/></g></g></g><g fill="#000000" fill-opacity="1"><g transform="translate(263.552944, 84.737451)"><g><path d="M 16.453125 0.703125 C 11.992188 0.703125 8.398438 -0.347656 5.671875 -2.453125 C 2.941406 -4.566406 1.578125 -8.117188 1.578125 -13.109375 C 1.578125 -17.503906 3.144531 -20.976562 6.28125 -23.53125 C 9.425781 -26.082031 13.753906 -27.828125 19.265625 -28.765625 C 24.304688 -29.472656 27.851562 -30.191406 29.90625 -30.921875 C 31.96875 -31.660156 33 -32.820312 33 -34.40625 C 33 -35.34375 32.351562 -36.21875 31.0625 -37.03125 C 29.769531 -37.851562 27.566406 -38.265625 24.453125 -38.265625 C 21.816406 -38.265625 19.085938 -37.851562 16.265625 -37.03125 C 13.453125 -36.21875 10.992188 -34.875 8.890625 -33 C 8.242188 -32.0625 7.492188 -31.796875 6.640625 -32.203125 C 5.785156 -32.609375 5.390625 -33.457031 5.453125 -34.75 C 5.515625 -35.394531 5.601562 -36.289062 5.71875 -37.4375 C 5.832031 -38.582031 5.960938 -39.738281 6.109375 -40.90625 C 6.253906 -42.082031 6.359375 -42.960938 6.421875 -43.546875 C 6.597656 -44.953125 7.1875 -45.863281 8.1875 -46.28125 C 13.050781 -47.800781 18.328125 -48.5625 24.015625 -48.5625 C 30.765625 -48.5625 36 -47.109375 39.71875 -44.203125 C 43.445312 -41.304688 45.601562 -36.660156 46.1875 -30.265625 C 46.363281 -28.035156 46.539062 -25.273438 46.71875 -21.984375 C 46.894531 -18.703125 47.070312 -15.359375 47.25 -11.953125 C 47.425781 -8.554688 47.570312 -5.507812 47.6875 -2.8125 C 47.6875 -1.289062 46.863281 -0.382812 45.21875 -0.09375 C 44.632812 0.0820312 43.898438 0.203125 43.015625 0.265625 C 42.140625 0.328125 41.289062 0.359375 40.46875 0.359375 C 39.769531 0.359375 38.875 0.328125 37.78125 0.265625 C 36.695312 0.203125 35.804688 0.0820312 35.109375 -0.09375 C 34.347656 -0.207031 33.726562 -0.539062 33.25 -1.09375 C 32.78125 -1.65625 32.609375 -2.316406 32.734375 -3.078125 C 32.847656 -3.660156 32.976562 -4.421875 33.125 -5.359375 C 33.269531 -6.304688 33.375 -7.25 33.4375 -8.1875 C 33.550781 -9.007812 33.359375 -9.492188 32.859375 -9.640625 C 32.359375 -9.785156 31.9375 -9.472656 31.59375 -8.703125 C 30.238281 -5.835938 28.148438 -3.550781 25.328125 -1.84375 C 22.515625 -0.144531 19.554688 0.703125 16.453125 0.703125 Z M 22.4375 -10.203125 C 23.90625 -10.203125 25.441406 -10.582031 27.046875 -11.34375 C 28.660156 -12.113281 30.023438 -13.21875 31.140625 -14.65625 C 32.253906 -16.09375 32.8125 -17.835938 32.8125 -19.890625 C 32.8125 -21.296875 32.382812 -22.453125 31.53125 -23.359375 C 30.6875 -24.265625 29.238281 -24.71875 27.1875 -24.71875 C 25.132812 -24.71875 23.171875 -24.335938 21.296875 -23.578125 C 19.421875 -22.816406 17.894531 -21.773438 16.71875 -20.453125 C 15.539062 -19.140625 14.953125 -17.570312 14.953125 -15.75 C 14.953125 -13.75 15.539062 -12.320312 16.71875 -11.46875 C 17.894531 -10.625 19.800781 -10.203125 22.4375 -10.203125 Z M 22.4375 -10.203125 "/></g></g></g><g fill="#000000" fill-opacity="1"><g transform="translate(313.257785, 84.737451)"><g><path d="M 23.484375 0.609375 C 21.429688 0.609375 19.203125 0.460938 16.796875 0.171875 C 14.398438 -0.117188 12.054688 -0.5 9.765625 -0.96875 C 7.472656 -1.4375 5.476562 -1.9375 3.78125 -2.46875 C 3.132812 -2.757812 2.601562 -3.15625 2.1875 -3.65625 C 1.78125 -4.15625 1.609375 -4.785156 1.671875 -5.546875 C 1.785156 -7.015625 1.875 -8.453125 1.9375 -9.859375 C 2 -11.265625 2.054688 -12.703125 2.109375 -14.171875 C 2.222656 -15.453125 2.675781 -16.195312 3.46875 -16.40625 C 4.257812 -16.613281 4.953125 -16.363281 5.546875 -15.65625 C 6.890625 -14.539062 8.53125 -13.53125 10.46875 -12.625 C 12.40625 -11.71875 14.457031 -11.015625 16.625 -10.515625 C 18.800781 -10.015625 20.851562 -9.765625 22.78125 -9.765625 C 25.78125 -9.765625 28.054688 -10.128906 29.609375 -10.859375 C 31.160156 -11.597656 31.9375 -12.816406 31.9375 -14.515625 C 31.9375 -15.804688 31.234375 -16.863281 29.828125 -17.6875 C 28.421875 -18.507812 26.613281 -19.242188 24.40625 -19.890625 C 22.207031 -20.535156 19.875 -21.207031 17.40625 -21.90625 C 14.945312 -22.613281 12.617188 -23.523438 10.421875 -24.640625 C 8.222656 -25.753906 6.421875 -27.160156 5.015625 -28.859375 C 3.609375 -30.554688 2.90625 -32.726562 2.90625 -35.375 C 2.90625 -38.25 3.828125 -40.648438 5.671875 -42.578125 C 7.523438 -44.515625 10.0625 -45.984375 13.28125 -46.984375 C 16.507812 -47.984375 20.175781 -48.484375 24.28125 -48.484375 C 26.457031 -48.484375 28.976562 -48.320312 31.84375 -48 C 34.71875 -47.675781 37.179688 -47.191406 39.234375 -46.546875 C 40.765625 -45.953125 41.53125 -44.953125 41.53125 -43.546875 C 41.582031 -42.378906 41.609375 -41.191406 41.609375 -39.984375 C 41.609375 -38.785156 41.609375 -37.597656 41.609375 -36.421875 C 41.609375 -34.953125 41.226562 -34.128906 40.46875 -33.953125 C 39.707031 -33.785156 39.003906 -33.992188 38.359375 -34.578125 C 36.710938 -35.753906 34.6875 -36.722656 32.28125 -37.484375 C 29.882812 -38.242188 27.484375 -38.625 25.078125 -38.625 C 22.554688 -38.625 20.414062 -38.226562 18.65625 -37.4375 C 16.894531 -36.644531 16.015625 -35.570312 16.015625 -34.21875 C 16.015625 -33.050781 16.71875 -32.082031 18.125 -31.3125 C 19.53125 -30.550781 21.332031 -29.863281 23.53125 -29.25 C 25.726562 -28.632812 28.054688 -27.945312 30.515625 -27.1875 C 32.984375 -26.425781 35.316406 -25.472656 37.515625 -24.328125 C 39.722656 -23.179688 41.53125 -21.742188 42.9375 -20.015625 C 44.34375 -18.285156 45.046875 -16.070312 45.046875 -13.375 C 45.046875 -9.144531 43.210938 -5.753906 39.546875 -3.203125 C 35.878906 -0.660156 30.523438 0.609375 23.484375 0.609375 Z M 23.484375 0.609375 "/></g></g></g><g fill="#000000" fill-opacity="1"><g transform="translate(359.97153, 84.737451)"><g><path d="M 10.03125 0.703125 C 7.5625 0.703125 5.519531 0 3.90625 -1.40625 C 2.300781 -2.8125 1.5 -4.804688 1.5 -7.390625 C 1.5 -9.972656 2.300781 -11.96875 3.90625 -13.375 C 5.519531 -14.78125 7.5625 -15.484375 10.03125 -15.484375 C 12.550781 -15.484375 14.617188 -14.78125 16.234375 -13.375 C 17.847656 -11.96875 18.65625 -9.941406 18.65625 -7.296875 C 18.65625 -4.773438 17.832031 -2.8125 16.1875 -1.40625 C 14.539062 0 12.488281 0.703125 10.03125 0.703125 Z M 10.03125 0.703125 "/></g></g></g><g fill="#000000" fill-opacity="1"><g transform="translate(380.029426, 84.737451)"><g><path d="M 23.484375 0.609375 C 21.429688 0.609375 19.203125 0.460938 16.796875 0.171875 C 14.398438 -0.117188 12.054688 -0.5 9.765625 -0.96875 C 7.472656 -1.4375 5.476562 -1.9375 3.78125 -2.46875 C 3.132812 -2.757812 2.601562 -3.15625 2.1875 -3.65625 C 1.78125 -4.15625 1.609375 -4.785156 1.671875 -5.546875 C 1.785156 -7.015625 1.875 -8.453125 1.9375 -9.859375 C 2 -11.265625 2.054688 -12.703125 2.109375 -14.171875 C 2.222656 -15.453125 2.675781 -16.195312 3.46875 -16.40625 C 4.257812 -16.613281 4.953125 -16.363281 5.546875 -15.65625 C 6.890625 -14.539062 8.53125 -13.53125 10.46875 -12.625 C 12.40625 -11.71875 14.457031 -11.015625 16.625 -10.515625 C 18.800781 -10.015625 20.851562 -9.765625 22.78125 -9.765625 C 25.78125 -9.765625 28.054688 -10.128906 29.609375 -10.859375 C 31.160156 -11.597656 31.9375 -12.816406 31.9375 -14.515625 C 31.9375 -15.804688 31.234375 -16.863281 29.828125 -17.6875 C 28.421875 -18.507812 26.613281 -19.242188 24.40625 -19.890625 C 22.207031 -20.535156 19.875 -21.207031 17.40625 -21.90625 C 14.945312 -22.613281 12.617188 -23.523438 10.421875 -24.640625 C 8.222656 -25.753906 6.421875 -27.160156 5.015625 -28.859375 C 3.609375 -30.554688 2.90625 -32.726562 2.90625 -35.375 C 2.90625 -38.25 3.828125 -40.648438 5.671875 -42.578125 C 7.523438 -44.515625 10.0625 -45.984375 13.28125 -46.984375 C 16.507812 -47.984375 20.175781 -48.484375 24.28125 -48.484375 C 26.457031 -48.484375 28.976562 -48.320312 31.84375 -48 C 34.71875 -47.675781 37.179688 -47.191406 39.234375 -46.546875 C 40.765625 -45.953125 41.53125 -44.953125 41.53125 -43.546875 C 41.582031 -42.378906 41.609375 -41.191406 41.609375 -39.984375 C 41.609375 -38.785156 41.609375 -37.597656 41.609375 -36.421875 C 41.609375 -34.953125 41.226562 -34.128906 40.46875 -33.953125 C 39.707031 -33.785156 39.003906 -33.992188 38.359375 -34.578125 C 36.710938 -35.753906 34.6875 -36.722656 32.28125 -37.484375 C 29.882812 -38.242188 27.484375 -38.625 25.078125 -38.625 C 22.554688 -38.625 20.414062 -38.226562 18.65625 -37.4375 C 16.894531 -36.644531 16.015625 -35.570312 16.015625 -34.21875 C 16.015625 -33.050781 16.71875 -32.082031 18.125 -31.3125 C 19.53125 -30.550781 21.332031 -29.863281 23.53125 -29.25 C 25.726562 -28.632812 28.054688 -27.945312 30.515625 -27.1875 C 32.984375 -26.425781 35.316406 -25.472656 37.515625 -24.328125 C 39.722656 -23.179688 41.53125 -21.742188 42.9375 -20.015625 C 44.34375 -18.285156 45.046875 -16.070312 45.046875 -13.375 C 45.046875 -9.144531 43.210938 -5.753906 39.546875 -3.203125 C 35.878906 -0.660156 30.523438 0.609375 23.484375 0.609375 Z M 23.484375 0.609375 "/></g></g></g><g fill="#000000" fill-opacity="1"><g transform="translate(426.743172, 84.737451)"><g><path d="M 9.328125 0.359375 C 8.566406 0.359375 7.710938 0.3125 6.765625 0.21875 C 5.828125 0.132812 4.976562 0.0625 4.21875 0 C 3.695312 -0.113281 3.242188 -0.375 2.859375 -0.78125 C 2.472656 -1.195312 2.28125 -1.785156 2.28125 -2.546875 C 2.28125 -7.890625 2.320312 -13.316406 2.40625 -18.828125 C 2.5 -24.335938 2.601562 -29.6875 2.71875 -34.875 C 2.84375 -40.070312 3.003906 -44.914062 3.203125 -49.40625 C 3.410156 -53.894531 3.632812 -57.78125 3.875 -61.0625 C 3.988281 -62.40625 4.601562 -63.164062 5.71875 -63.34375 C 6.363281 -63.46875 7.082031 -63.554688 7.875 -63.609375 C 8.664062 -63.671875 9.441406 -63.703125 10.203125 -63.703125 C 11.023438 -63.703125 11.90625 -63.671875 12.84375 -63.609375 C 13.78125 -63.554688 14.660156 -63.46875 15.484375 -63.34375 C 16.066406 -63.289062 16.5625 -63.054688 16.96875 -62.640625 C 17.382812 -62.234375 17.535156 -61.707031 17.421875 -61.0625 C 17.128906 -58.363281 16.820312 -55.367188 16.5 -52.078125 C 16.175781 -48.796875 15.957031 -45.25 15.84375 -41.4375 C 15.84375 -40.4375 16.015625 -39.832031 16.359375 -39.625 C 16.710938 -39.425781 17.179688 -39.769531 17.765625 -40.65625 C 19.828125 -43.46875 22.046875 -45.488281 24.421875 -46.71875 C 26.796875 -47.945312 29.503906 -48.5625 32.546875 -48.5625 C 36.128906 -48.5625 39.3125 -47.625 42.09375 -45.75 C 44.882812 -43.875 47.113281 -41.191406 48.78125 -37.703125 C 50.457031 -34.210938 51.382812 -30.0625 51.5625 -25.25 C 51.675781 -22.957031 51.789062 -20.738281 51.90625 -18.59375 C 52.03125 -16.457031 52.117188 -14.128906 52.171875 -11.609375 C 52.234375 -9.085938 52.265625 -6.097656 52.265625 -2.640625 C 52.265625 -1.878906 52.054688 -1.289062 51.640625 -0.875 C 51.234375 -0.46875 50.738281 -0.207031 50.15625 -0.09375 C 49.445312 -0.03125 48.648438 0.0390625 47.765625 0.125 C 46.890625 0.21875 46.160156 0.265625 45.578125 0.265625 C 45.046875 0.265625 44.207031 0.234375 43.0625 0.171875 C 41.925781 0.117188 40.945312 0.03125 40.125 -0.09375 C 39.53125 -0.207031 39.015625 -0.46875 38.578125 -0.875 C 38.140625 -1.289062 37.953125 -1.847656 38.015625 -2.546875 C 38.242188 -4.597656 38.414062 -6.828125 38.53125 -9.234375 C 38.65625 -11.640625 38.742188 -13.984375 38.796875 -16.265625 C 38.859375 -18.554688 38.890625 -20.46875 38.890625 -22 C 38.773438 -26.6875 37.660156 -30.421875 35.546875 -33.203125 C 33.429688 -35.992188 30.585938 -37.390625 27.015625 -37.390625 C 23.609375 -37.390625 20.816406 -35.984375 18.640625 -33.171875 C 16.472656 -30.359375 15.390625 -26.570312 15.390625 -21.8125 C 15.453125 -19.289062 15.539062 -16.253906 15.65625 -12.703125 C 15.78125 -9.160156 16.046875 -5.75 16.453125 -2.46875 C 16.566406 -1.757812 16.40625 -1.195312 15.96875 -0.78125 C 15.53125 -0.375 15.015625 -0.113281 14.421875 0 C 13.785156 0.0625 12.953125 0.132812 11.921875 0.21875 C 10.890625 0.3125 10.023438 0.359375 9.328125 0.359375 Z M 9.328125 0.359375 "/></g></g></g><g fill="#000000" fill-opacity="1"><g transform="translate(480.582702, 84.737451)"><g><path d="M 26.21875 0.703125 C 21.53125 0.703125 17.320312 -0.1875 13.59375 -1.96875 C 9.863281 -3.757812 6.925781 -6.457031 4.78125 -10.0625 C 2.644531 -13.675781 1.578125 -18.179688 1.578125 -23.578125 C 1.578125 -28.859375 2.632812 -33.359375 4.75 -37.078125 C 6.863281 -40.804688 9.78125 -43.648438 13.5 -45.609375 C 17.226562 -47.578125 21.46875 -48.5625 26.21875 -48.5625 C 30.96875 -48.5625 35.175781 -47.578125 38.84375 -45.609375 C 42.507812 -43.648438 45.394531 -40.804688 47.5 -37.078125 C 49.613281 -33.359375 50.671875 -28.859375 50.671875 -23.578125 C 50.671875 -18.179688 49.613281 -13.675781 47.5 -10.0625 C 45.394531 -6.457031 42.492188 -3.757812 38.796875 -1.96875 C 35.109375 -0.1875 30.914062 0.703125 26.21875 0.703125 Z M 26.21875 -9.671875 C 29.675781 -9.671875 32.535156 -10.898438 34.796875 -13.359375 C 37.054688 -15.828125 38.1875 -19.378906 38.1875 -24.015625 C 38.1875 -28.421875 37.070312 -31.882812 34.84375 -34.40625 C 32.613281 -36.925781 29.738281 -38.1875 26.21875 -38.1875 C 22.644531 -38.1875 19.753906 -36.925781 17.546875 -34.40625 C 15.347656 -31.882812 14.25 -28.421875 14.25 -24.015625 C 14.25 -19.378906 15.378906 -15.828125 17.640625 -13.359375 C 19.898438 -10.898438 22.757812 -9.671875 26.21875 -9.671875 Z M 26.21875 -9.671875 "/></g></g></g><g clip-path="url(#56a4554b1c)"><g fill="#000000" fill-opacity="1"><g transform="translate(531.078998, 84.737451)"><g><path d="M 8.625 20.59375 C 8.207031 20.59375 7.5 20.546875 6.5 20.453125 C 5.507812 20.367188 4.691406 20.296875 4.046875 20.234375 C 2.816406 20.054688 2.203125 19.320312 2.203125 18.03125 C 2.203125 14.394531 2.210938 10.023438 2.234375 4.921875 C 2.265625 -0.179688 2.351562 -5.648438 2.5 -11.484375 C 2.65625 -17.316406 2.832031 -23.148438 3.03125 -28.984375 C 3.238281 -34.828125 3.519531 -40.300781 3.875 -45.40625 C 3.988281 -46.863281 4.691406 -47.679688 5.984375 -47.859375 C 6.679688 -47.984375 7.53125 -48.070312 8.53125 -48.125 C 9.53125 -48.1875 10.234375 -48.21875 10.640625 -48.21875 C 11.054688 -48.21875 11.832031 -48.1875 12.96875 -48.125 C 14.113281 -48.070312 15.007812 -47.984375 15.65625 -47.859375 C 16.25 -47.804688 16.734375 -47.554688 17.109375 -47.109375 C 17.492188 -46.671875 17.628906 -46.101562 17.515625 -45.40625 C 17.390625 -44.8125 17.269531 -44.191406 17.15625 -43.546875 C 17.039062 -42.898438 16.953125 -42.316406 16.890625 -41.796875 C 16.835938 -40.910156 17.015625 -40.410156 17.421875 -40.296875 C 17.828125 -40.179688 18.238281 -40.503906 18.65625 -41.265625 C 20.238281 -43.429688 22.316406 -45.1875 24.890625 -46.53125 C 27.472656 -47.882812 30.085938 -48.5625 32.734375 -48.5625 C 36.421875 -48.5625 39.6875 -47.648438 42.53125 -45.828125 C 45.382812 -44.015625 47.613281 -41.316406 49.21875 -37.734375 C 50.832031 -34.160156 51.640625 -29.675781 51.640625 -24.28125 C 51.640625 -19.0625 50.773438 -14.570312 49.046875 -10.8125 C 47.316406 -7.0625 44.96875 -4.203125 42 -2.234375 C 39.039062 -0.273438 35.71875 0.703125 32.03125 0.703125 C 28.914062 0.703125 26.007812 -0.015625 23.3125 -1.453125 C 20.613281 -2.890625 18.53125 -4.867188 17.0625 -7.390625 C 16.65625 -8.148438 16.257812 -8.457031 15.875 -8.3125 C 15.5 -8.164062 15.28125 -7.65625 15.21875 -6.78125 C 15.164062 -5.132812 15.148438 -3.195312 15.171875 -0.96875 C 15.203125 1.257812 15.257812 3.546875 15.34375 5.890625 C 15.4375 8.242188 15.554688 10.472656 15.703125 12.578125 C 15.847656 14.691406 16.007812 16.484375 16.1875 17.953125 C 16.300781 18.597656 16.140625 19.109375 15.703125 19.484375 C 15.265625 19.867188 14.753906 20.117188 14.171875 20.234375 C 13.523438 20.296875 12.554688 20.367188 11.265625 20.453125 C 9.972656 20.546875 9.09375 20.59375 8.625 20.59375 Z M 27.359375 -9.859375 C 30.816406 -9.859375 33.644531 -11.101562 35.84375 -13.59375 C 38.050781 -16.082031 39.15625 -19.5 39.15625 -23.84375 C 39.15625 -28.363281 38.039062 -31.882812 35.8125 -34.40625 C 33.582031 -36.925781 30.765625 -38.1875 27.359375 -38.1875 C 24.078125 -38.1875 21.289062 -36.925781 19 -34.40625 C 16.71875 -31.882812 15.578125 -28.363281 15.578125 -23.84375 C 15.578125 -19.5 16.691406 -16.082031 18.921875 -13.59375 C 21.148438 -11.101562 23.960938 -9.859375 27.359375 -9.859375 Z M 27.359375 -9.859375 "/></g></g></g></g></g></g></g></svg>