<svg xmlns="http://www.w3.org/2000/svg" xmlns:xlink="http://www.w3.org/1999/xlink" width="1000" zoomAndPan="magnify" viewBox="0 0 750 153.750002" height="205" preserveAspectRatio="xMidYMid meet" version="1.0"><defs><g/><clipPath id="7ba24e2cd6"><path d="M 76 65 L 169 65 L 169 142.972656 L 76 142.972656 Z M 76 65 " clip-rule="nonzero"/></clipPath><clipPath id="bb3f4c1af5"><path d="M 100 9.6875 L 134 9.6875 L 134 60 L 100 60 Z M 100 9.6875 " clip-rule="nonzero"/></clipPath><clipPath id="0d39c037c5"><path d="M 493 33 L 540 33 L 540 98.566406 L 493 98.566406 Z M 493 33 " clip-rule="nonzero"/></clipPath><clipPath id="100c699271"><rect x="0" width="542" y="0" height="99"/></clipPath></defs><g clip-path="url(#7ba24e2cd6)"><path fill="#000000" d="M 100.039062 70.023438 C 111.441406 64.167969 125.539062 64.6875 137.210938 69.988281 C 148.882812 75.292969 158.210938 84.988281 164.535156 96.128906 C 166.667969 99.882812 168.535156 104.027344 168.269531 108.335938 C 168.027344 112.257812 165.964844 115.964844 162.988281 118.53125 C 160.011719 121.101562 156.183594 122.582031 152.28125 123.066406 C 149.042969 123.472656 145.511719 123.140625 142.9375 121.132812 C 138.738281 117.859375 133.652344 115.027344 128.363281 115.671875 C 125.484375 116.019531 122.808594 117.386719 120.488281 119.125 C 116.210938 122.320312 112.945312 126.851562 111.261719 131.917969 C 110.792969 133.335938 110.4375 134.804688 109.707031 136.109375 C 108.800781 137.722656 107.359375 138.984375 105.765625 139.925781 C 100.59375 142.96875 93.796875 142.578125 88.570312 139.625 C 83.347656 136.671875 79.640625 131.441406 77.765625 125.746094 C 75.886719 120.046875 75.710938 113.90625 76.378906 107.945312 C 78.105469 92.523438 86.222656 77.117188 100.039062 70.023438 Z M 100.039062 70.023438 " fill-opacity="1" fill-rule="nonzero"/></g><path fill="#000000" d="M 87.144531 68.957031 C 84.042969 70.96875 80.042969 71.300781 76.464844 70.375 C 72.886719 69.445312 69.695312 67.355469 66.972656 64.859375 C 60.535156 58.964844 56.433594 50.597656 55.714844 41.90625 C 55.46875 38.957031 55.609375 35.941406 56.507812 33.121094 C 57.40625 30.296875 59.113281 27.679688 61.5625 26.015625 C 64.679688 23.902344 68.765625 23.511719 72.414062 24.441406 C 76.0625 25.371094 79.3125 27.507812 82.074219 30.0625 C 88.40625 35.910156 92.457031 44.164062 93.210938 52.746094 C 93.476562 55.765625 93.339844 58.859375 92.40625 61.746094 C 91.472656 64.632812 89.6875 67.304688 87.144531 68.957031 Z M 87.144531 68.957031 " fill-opacity="1" fill-rule="nonzero"/><g clip-path="url(#bb3f4c1af5)"><path fill="#000000" d="M 116.429688 9.796875 C 119.457031 9.6875 122.445312 10.902344 124.804688 12.800781 C 127.167969 14.703125 128.941406 17.25 130.28125 19.964844 C 133.035156 25.53125 134.058594 31.878906 133.617188 38.074219 C 133.265625 42.996094 131.980469 47.914062 129.375 52.109375 C 126.957031 56.011719 123.082031 59.359375 118.503906 59.734375 C 115.121094 60.011719 111.734375 58.605469 109.167969 56.382812 C 106.605469 54.15625 104.792969 51.175781 103.476562 48.046875 C 100.011719 39.832031 99.8125 30.292969 102.929688 21.941406 C 104.050781 18.933594 105.617188 16.035156 107.894531 13.773438 C 110.171875 11.507812 113.21875 9.910156 116.429688 9.796875 Z M 116.429688 9.796875 " fill-opacity="1" fill-rule="nonzero"/></g><path fill="#000000" d="M 167.683594 68.207031 C 165.589844 70.757812 162.984375 72.964844 159.898438 74.136719 C 156.808594 75.308594 153.210938 75.34375 150.296875 73.789062 C 149.113281 73.15625 148.066406 72.28125 147.1875 71.265625 C 144.636719 68.3125 143.589844 64.308594 143.445312 60.40625 C 143.195312 53.675781 145.496094 46.875 149.78125 41.675781 C 151.753906 39.285156 154.167969 37.199219 157.023438 36 C 159.878906 34.800781 163.207031 34.550781 166.078125 35.710938 C 168.675781 36.765625 170.746094 38.910156 172.03125 41.398438 C 173.316406 43.890625 173.863281 46.710938 173.96875 49.511719 C 174.226562 56.226562 171.945312 63.007812 167.683594 68.207031 Z M 167.683594 68.207031 " fill-opacity="1" fill-rule="nonzero"/><path fill="#000000" d="M 52.472656 105.820312 C 47.128906 103.777344 42.566406 99.773438 39.847656 94.746094 C 37.316406 90.058594 36.449219 84.191406 38.78125 79.402344 C 39.335938 78.261719 40.058594 77.199219 40.925781 76.269531 C 43.21875 73.789062 46.464844 72.277344 49.816406 71.835938 C 53.164062 71.394531 56.609375 71.980469 59.742188 73.25 C 63.625 74.820312 67.070312 77.433594 69.710938 80.683594 C 72.164062 83.695312 73.953125 87.320312 74.414062 91.179688 C 74.878906 95.035156 73.925781 99.125 71.460938 102.128906 C 69.273438 104.789062 66.015625 106.472656 62.617188 107.027344 C 59.214844 107.578125 55.691406 107.046875 52.472656 105.820312 Z M 52.472656 105.820312 " fill-opacity="1" fill-rule="nonzero"/><g transform="matrix(1, 0, 0, 1, 179, 44)"><g clip-path="url(#100c699271)"><g fill="#000000" fill-opacity="1"><g transform="translate(0.573769, 78.985994)"><g><path d="M 9.125 0.328125 C 8.582031 0.328125 7.863281 0.296875 6.96875 0.234375 C 6.070312 0.179688 5.1875 0.101562 4.3125 0 C 3.769531 -0.101562 3.296875 -0.34375 2.890625 -0.71875 C 2.484375 -1.101562 2.28125 -1.625 2.28125 -2.28125 C 2.28125 -7.007812 2.304688 -11.832031 2.359375 -16.75 C 2.410156 -21.664062 2.488281 -26.472656 2.59375 -31.171875 C 2.707031 -35.867188 2.859375 -40.253906 3.046875 -44.328125 C 3.242188 -48.410156 3.476562 -51.972656 3.75 -55.015625 C 3.914062 -56.210938 4.59375 -56.890625 5.78125 -57.046875 C 6.539062 -57.210938 7.207031 -57.304688 7.78125 -57.328125 C 8.351562 -57.359375 8.910156 -57.375 9.453125 -57.375 C 10.160156 -57.375 10.921875 -57.347656 11.734375 -57.296875 C 12.546875 -57.242188 13.304688 -57.160156 14.015625 -57.046875 C 15.429688 -56.773438 16.082031 -56.039062 15.96875 -54.84375 C 15.75 -52.507812 15.546875 -50.144531 15.359375 -47.75 C 15.171875 -45.363281 15.078125 -42.648438 15.078125 -39.609375 C 15.078125 -37.429688 15.820312 -35.988281 17.3125 -35.28125 C 18.8125 -34.582031 20.753906 -34.175781 23.140625 -34.0625 C 24.234375 -34.007812 25.59375 -33.984375 27.21875 -33.984375 C 28.851562 -33.984375 30.210938 -34.007812 31.296875 -34.0625 C 33.742188 -34.175781 35.765625 -34.582031 37.359375 -35.28125 C 38.960938 -35.988281 39.765625 -37.429688 39.765625 -39.609375 C 39.765625 -42.648438 39.671875 -45.378906 39.484375 -47.796875 C 39.296875 -50.210938 39.09375 -52.59375 38.875 -54.9375 C 38.820312 -55.53125 39 -56.039062 39.40625 -56.46875 C 39.8125 -56.90625 40.285156 -57.15625 40.828125 -57.21875 C 41.640625 -57.320312 42.476562 -57.382812 43.34375 -57.40625 C 44.21875 -57.4375 44.929688 -57.453125 45.484375 -57.453125 C 45.960938 -57.453125 46.5 -57.4375 47.09375 -57.40625 C 47.695312 -57.382812 48.351562 -57.320312 49.0625 -57.21875 C 50.363281 -56.945312 51.039062 -56.238281 51.09375 -55.09375 C 51.375 -52.050781 51.609375 -48.492188 51.796875 -44.421875 C 51.984375 -40.347656 52.144531 -35.957031 52.28125 -31.25 C 52.414062 -26.550781 52.507812 -21.726562 52.5625 -16.78125 C 52.625 -11.84375 52.65625 -7.007812 52.65625 -2.28125 C 52.65625 -1.625 52.4375 -1.101562 52 -0.71875 C 51.5625 -0.34375 51.070312 -0.101562 50.53125 0 C 49.65625 0.101562 48.753906 0.179688 47.828125 0.234375 C 46.910156 0.296875 46.179688 0.328125 45.640625 0.328125 C 45.148438 0.328125 44.28125 0.296875 43.03125 0.234375 C 41.78125 0.179688 40.800781 0.128906 40.09375 0.078125 C 39.550781 -0.0234375 39.078125 -0.296875 38.671875 -0.734375 C 38.265625 -1.171875 38.113281 -1.738281 38.21875 -2.4375 C 38.601562 -5.15625 38.929688 -7.84375 39.203125 -10.5 C 39.472656 -13.164062 39.609375 -15.78125 39.609375 -18.34375 C 39.609375 -20.40625 38.859375 -21.785156 37.359375 -22.484375 C 35.867188 -23.191406 33.875 -23.578125 31.375 -23.640625 C 30.289062 -23.691406 28.90625 -23.71875 27.21875 -23.71875 C 25.53125 -23.71875 24.144531 -23.691406 23.0625 -23.640625 C 20.613281 -23.578125 18.695312 -23.191406 17.3125 -22.484375 C 15.925781 -21.785156 15.234375 -20.40625 15.234375 -18.34375 C 15.234375 -15.84375 15.351562 -13.242188 15.59375 -10.546875 C 15.84375 -7.859375 16.160156 -5.15625 16.546875 -2.4375 C 16.648438 -1.738281 16.507812 -1.171875 16.125 -0.734375 C 15.75 -0.296875 15.289062 -0.0234375 14.75 0.078125 C 14.039062 0.128906 13.046875 0.179688 11.765625 0.234375 C 10.492188 0.296875 9.613281 0.328125 9.125 0.328125 Z M 9.125 0.328125 "/></g></g></g><g fill="#000000" fill-opacity="1"><g transform="translate(55.417188, 78.985994)"><g><path d="M 20.046875 0.65625 C 13.859375 0.65625 9.320312 -1.296875 6.4375 -5.203125 C 3.5625 -9.117188 2.125 -14.421875 2.125 -21.109375 C 2.125 -24.203125 2.21875 -27.378906 2.40625 -30.640625 C 2.59375 -33.898438 2.878906 -37.703125 3.265625 -42.046875 C 3.316406 -43.359375 3.96875 -44.148438 5.21875 -44.421875 C 5.863281 -44.523438 6.59375 -44.601562 7.40625 -44.65625 C 8.226562 -44.71875 8.828125 -44.75 9.203125 -44.75 C 9.753906 -44.75 10.554688 -44.71875 11.609375 -44.65625 C 12.671875 -44.601562 13.582031 -44.523438 14.34375 -44.421875 C 14.882812 -44.304688 15.34375 -44.054688 15.71875 -43.671875 C 16.101562 -43.296875 16.242188 -42.785156 16.140625 -42.140625 C 15.867188 -40.234375 15.582031 -38.148438 15.28125 -35.890625 C 14.976562 -33.640625 14.734375 -31.425781 14.546875 -29.25 C 14.359375 -27.082031 14.265625 -25.210938 14.265625 -23.640625 C 14.265625 -19.285156 15.101562 -15.875 16.78125 -13.40625 C 18.46875 -10.9375 21.1875 -9.703125 24.9375 -9.703125 C 27.875 -9.703125 30.238281 -11.019531 32.03125 -13.65625 C 33.820312 -16.289062 34.71875 -19.804688 34.71875 -24.203125 C 34.71875 -26.597656 34.59375 -29.425781 34.34375 -32.6875 C 34.101562 -35.945312 33.710938 -39.066406 33.171875 -42.046875 C 33.054688 -42.703125 33.191406 -43.234375 33.578125 -43.640625 C 33.960938 -44.046875 34.394531 -44.304688 34.875 -44.421875 C 35.476562 -44.523438 36.269531 -44.601562 37.25 -44.65625 C 38.226562 -44.71875 39.039062 -44.75 39.6875 -44.75 C 40.445312 -44.75 41.234375 -44.71875 42.046875 -44.65625 C 42.867188 -44.601562 43.632812 -44.523438 44.34375 -44.421875 C 45.476562 -44.253906 46.128906 -43.460938 46.296875 -42.046875 C 46.617188 -37.328125 46.859375 -33.1875 47.015625 -29.625 C 47.179688 -26.0625 47.304688 -22.800781 47.390625 -19.84375 C 47.472656 -16.882812 47.5 -14.003906 47.46875 -11.203125 C 47.445312 -8.410156 47.4375 -5.382812 47.4375 -2.125 C 47.4375 -0.925781 46.890625 -0.191406 45.796875 0.078125 C 45.253906 0.191406 44.613281 0.273438 43.875 0.328125 C 43.144531 0.378906 42.429688 0.40625 41.734375 0.40625 C 41.023438 0.40625 40.257812 0.363281 39.4375 0.28125 C 38.625 0.195312 37.835938 0.128906 37.078125 0.078125 C 36.535156 -0.0234375 36.085938 -0.28125 35.734375 -0.6875 C 35.378906 -1.09375 35.257812 -1.597656 35.375 -2.203125 C 35.476562 -2.960938 35.539062 -3.691406 35.5625 -4.390625 C 35.59375 -5.097656 35.609375 -5.726562 35.609375 -6.28125 C 35.609375 -7.195312 35.429688 -7.679688 35.078125 -7.734375 C 34.734375 -7.796875 34.34375 -7.445312 33.90625 -6.6875 C 32.164062 -4.132812 30.164062 -2.269531 27.90625 -1.09375 C 25.65625 0.0703125 23.035156 0.65625 20.046875 0.65625 Z M 20.046875 0.65625 "/></g></g></g><g fill="#000000" fill-opacity="1"><g transform="translate(104.230186, 78.985994)"><g><path d="M 25.1875 0.65625 C 20.40625 0.65625 16.234375 -0.253906 12.671875 -2.078125 C 9.109375 -3.898438 6.347656 -6.546875 4.390625 -10.015625 C 2.441406 -13.492188 1.46875 -17.707031 1.46875 -22.65625 C 1.46875 -27.4375 2.40625 -31.484375 4.28125 -34.796875 C 6.15625 -38.109375 8.722656 -40.632812 11.984375 -42.375 C 15.242188 -44.113281 18.9375 -44.984375 23.0625 -44.984375 C 28.820312 -44.984375 33.476562 -43.691406 37.03125 -41.109375 C 40.59375 -38.535156 42.375 -34.75 42.375 -29.75 C 42.375 -27.082031 41.65625 -24.726562 40.21875 -22.6875 C 38.78125 -20.65625 36.878906 -19.082031 34.515625 -17.96875 C 32.148438 -16.851562 29.609375 -16.296875 26.890625 -16.296875 C 24.660156 -16.296875 22.5 -16.484375 20.40625 -16.859375 C 18.320312 -17.242188 16.492188 -17.875 14.921875 -18.75 C 14.097656 -19.289062 13.492188 -19.328125 13.109375 -18.859375 C 12.734375 -18.398438 12.816406 -17.789062 13.359375 -17.03125 C 14.015625 -15.507812 15.0625 -14.148438 16.5 -12.953125 C 17.9375 -11.765625 19.578125 -10.828125 21.421875 -10.140625 C 23.273438 -9.460938 25.125 -9.125 26.96875 -9.125 C 29.09375 -9.125 31.347656 -9.585938 33.734375 -10.515625 C 36.128906 -11.441406 38.085938 -12.609375 39.609375 -14.015625 C 40.203125 -14.773438 40.835938 -15.03125 41.515625 -14.78125 C 42.203125 -14.539062 42.570312 -13.878906 42.625 -12.796875 C 42.726562 -11.597656 42.796875 -10.375 42.828125 -9.125 C 42.859375 -7.875 42.898438 -6.648438 42.953125 -5.453125 C 42.953125 -4.421875 42.597656 -3.691406 41.890625 -3.265625 C 39.878906 -1.898438 37.3125 -0.90625 34.1875 -0.28125 C 31.0625 0.34375 28.0625 0.65625 25.1875 0.65625 Z M 23.71875 -22.578125 C 26.050781 -22.578125 27.894531 -23.160156 29.25 -24.328125 C 30.613281 -25.492188 31.296875 -27.082031 31.296875 -29.09375 C 31.296875 -31.21875 30.671875 -32.875 29.421875 -34.0625 C 28.171875 -35.257812 26.109375 -35.859375 23.234375 -35.859375 C 21.597656 -35.859375 19.992188 -35.519531 18.421875 -34.84375 C 16.847656 -34.164062 15.554688 -33.203125 14.546875 -31.953125 C 13.546875 -30.703125 13.046875 -29.179688 13.046875 -27.390625 C 13.046875 -26.296875 13.640625 -25.378906 14.828125 -24.640625 C 16.023438 -23.910156 17.453125 -23.382812 19.109375 -23.0625 C 20.765625 -22.738281 22.300781 -22.578125 23.71875 -22.578125 Z M 23.71875 -22.578125 "/></g></g></g><g fill="#000000" fill-opacity="1"><g transform="translate(148.724267, 78.985994)"><g><path d="M 8.96875 0.328125 C 8.363281 0.328125 7.554688 0.296875 6.546875 0.234375 C 5.546875 0.179688 4.722656 0.101562 4.078125 0 C 2.878906 -0.269531 2.28125 -1.03125 2.28125 -2.28125 C 2.28125 -7.007812 2.304688 -11.910156 2.359375 -16.984375 C 2.410156 -22.066406 2.476562 -27.050781 2.5625 -31.9375 C 2.644531 -36.832031 2.78125 -41.410156 2.96875 -45.671875 C 3.164062 -49.941406 3.375 -53.597656 3.59375 -56.640625 C 3.75 -57.835938 4.425781 -58.519531 5.625 -58.6875 C 6.21875 -58.789062 6.894531 -58.867188 7.65625 -58.921875 C 8.414062 -58.972656 9.125 -59 9.78125 -59 C 10.539062 -59 11.4375 -58.972656 12.46875 -58.921875 C 13.5 -58.867188 14.285156 -58.789062 14.828125 -58.6875 C 15.429688 -58.625 15.90625 -58.363281 16.25 -57.90625 C 16.601562 -57.445312 16.726562 -56.914062 16.625 -56.3125 C 16.1875 -52.894531 15.816406 -48.890625 15.515625 -44.296875 C 15.222656 -39.703125 15.007812 -34.90625 14.875 -29.90625 C 14.738281 -24.90625 14.710938 -20.015625 14.796875 -15.234375 C 14.878906 -10.453125 15.054688 -6.132812 15.328125 -2.28125 C 15.378906 -1.625 15.226562 -1.09375 14.875 -0.6875 C 14.519531 -0.28125 14.070312 -0.0234375 13.53125 0.078125 C 12.875 0.128906 12.097656 0.179688 11.203125 0.234375 C 10.304688 0.296875 9.5625 0.328125 8.96875 0.328125 Z M 8.96875 0.328125 "/></g></g></g><g fill="#000000" fill-opacity="1"><g transform="translate(167.467185, 78.985994)"><g><path d="M 8.96875 0.328125 C 8.363281 0.328125 7.554688 0.296875 6.546875 0.234375 C 5.546875 0.179688 4.722656 0.101562 4.078125 0 C 2.878906 -0.269531 2.28125 -1.03125 2.28125 -2.28125 C 2.28125 -7.007812 2.304688 -11.910156 2.359375 -16.984375 C 2.410156 -22.066406 2.476562 -27.050781 2.5625 -31.9375 C 2.644531 -36.832031 2.78125 -41.410156 2.96875 -45.671875 C 3.164062 -49.941406 3.375 -53.597656 3.59375 -56.640625 C 3.75 -57.835938 4.425781 -58.519531 5.625 -58.6875 C 6.21875 -58.789062 6.894531 -58.867188 7.65625 -58.921875 C 8.414062 -58.972656 9.125 -59 9.78125 -59 C 10.539062 -59 11.4375 -58.972656 12.46875 -58.921875 C 13.5 -58.867188 14.285156 -58.789062 14.828125 -58.6875 C 15.429688 -58.625 15.90625 -58.363281 16.25 -57.90625 C 16.601562 -57.445312 16.726562 -56.914062 16.625 -56.3125 C 16.1875 -52.894531 15.816406 -48.890625 15.515625 -44.296875 C 15.222656 -39.703125 15.007812 -34.90625 14.875 -29.90625 C 14.738281 -24.90625 14.710938 -20.015625 14.796875 -15.234375 C 14.878906 -10.453125 15.054688 -6.132812 15.328125 -2.28125 C 15.378906 -1.625 15.226562 -1.09375 14.875 -0.6875 C 14.519531 -0.28125 14.070312 -0.0234375 13.53125 0.078125 C 12.875 0.128906 12.097656 0.179688 11.203125 0.234375 C 10.304688 0.296875 9.5625 0.328125 8.96875 0.328125 Z M 8.96875 0.328125 "/></g></g></g><g fill="#000000" fill-opacity="1"><g transform="translate(186.210104, 78.985994)"><g><path d="M 8.796875 -48.578125 C 6.785156 -48.578125 5.140625 -49.117188 3.859375 -50.203125 C 2.585938 -51.285156 1.953125 -52.671875 1.953125 -54.359375 C 1.953125 -56.097656 2.585938 -57.507812 3.859375 -58.59375 C 5.140625 -59.6875 6.785156 -60.234375 8.796875 -60.234375 C 10.867188 -60.234375 12.539062 -59.6875 13.8125 -58.59375 C 15.09375 -57.507812 15.734375 -56.097656 15.734375 -54.359375 C 15.734375 -52.671875 15.09375 -51.285156 13.8125 -50.203125 C 12.539062 -49.117188 10.867188 -48.578125 8.796875 -48.578125 Z M 8.96875 0.328125 C 8.53125 0.328125 7.820312 0.3125 6.84375 0.28125 C 5.863281 0.257812 5.019531 0.164062 4.3125 0 C 3.832031 -0.101562 3.414062 -0.359375 3.0625 -0.765625 C 2.707031 -1.179688 2.53125 -1.710938 2.53125 -2.359375 C 2.53125 -7.085938 2.539062 -11.257812 2.5625 -14.875 C 2.59375 -18.488281 2.632812 -21.800781 2.6875 -24.8125 C 2.738281 -27.832031 2.816406 -30.738281 2.921875 -33.53125 C 3.035156 -36.332031 3.203125 -39.253906 3.421875 -42.296875 C 3.472656 -43.003906 3.632812 -43.503906 3.90625 -43.796875 C 4.175781 -44.097656 4.585938 -44.28125 5.140625 -44.34375 C 5.734375 -44.445312 6.421875 -44.523438 7.203125 -44.578125 C 7.992188 -44.628906 8.609375 -44.65625 9.046875 -44.65625 C 9.421875 -44.65625 9.960938 -44.628906 10.671875 -44.578125 C 11.378906 -44.523438 12.003906 -44.445312 12.546875 -44.34375 C 13.085938 -44.226562 13.492188 -44.035156 13.765625 -43.765625 C 14.046875 -43.492188 14.210938 -43.003906 14.265625 -42.296875 C 14.484375 -39.253906 14.644531 -36.332031 14.75 -33.53125 C 14.863281 -30.738281 14.945312 -27.832031 15 -24.8125 C 15.050781 -21.800781 15.085938 -18.472656 15.109375 -14.828125 C 15.140625 -11.191406 15.15625 -7.007812 15.15625 -2.28125 C 15.15625 -1.625 14.976562 -1.101562 14.625 -0.71875 C 14.269531 -0.34375 13.847656 -0.101562 13.359375 0 C 12.660156 0.101562 11.859375 0.179688 10.953125 0.234375 C 10.054688 0.296875 9.394531 0.328125 8.96875 0.328125 Z M 8.96875 0.328125 "/></g></g></g><g fill="#000000" fill-opacity="1"><g transform="translate(203.893636, 78.985994)"><g><path d="M 24.859375 0.65625 C 22.085938 0.65625 19.570312 0.113281 17.3125 -0.96875 C 15.0625 -2.0625 13.269531 -3.691406 11.9375 -5.859375 C 10.601562 -8.035156 9.910156 -10.726562 9.859375 -13.9375 C 9.859375 -15.832031 9.882812 -17.976562 9.9375 -20.375 C 10 -22.769531 10.082031 -25.203125 10.1875 -27.671875 C 10.289062 -30.140625 10.453125 -32.488281 10.671875 -34.71875 C 10.734375 -35.15625 10.597656 -35.507812 10.265625 -35.78125 C 9.941406 -36.050781 9.585938 -36.1875 9.203125 -36.1875 C 8.234375 -36.1875 7.226562 -36.1875 6.1875 -36.1875 C 5.15625 -36.1875 4.148438 -36.160156 3.171875 -36.109375 C 2.578125 -36.046875 2.0625 -36.242188 1.625 -36.703125 C 1.195312 -37.171875 0.984375 -37.707031 0.984375 -38.3125 L 0.984375 -42.140625 C 0.984375 -42.734375 1.195312 -43.25 1.625 -43.6875 C 2.0625 -44.125 2.578125 -44.34375 3.171875 -44.34375 L 9.203125 -44.34375 C 10.179688 -44.34375 10.671875 -44.859375 10.671875 -45.890625 C 10.671875 -46.921875 10.695312 -47.992188 10.75 -49.109375 C 10.8125 -50.222656 10.894531 -51.296875 11 -52.328125 C 11.164062 -53.679688 11.847656 -54.441406 13.046875 -54.609375 C 13.742188 -54.710938 14.429688 -54.789062 15.109375 -54.84375 C 15.796875 -54.90625 16.460938 -54.9375 17.109375 -54.9375 C 17.816406 -54.9375 18.492188 -54.90625 19.140625 -54.84375 C 19.796875 -54.789062 20.476562 -54.710938 21.1875 -54.609375 C 21.726562 -54.554688 22.21875 -54.320312 22.65625 -53.90625 C 23.09375 -53.5 23.253906 -52.972656 23.140625 -52.328125 C 23.085938 -51.234375 22.992188 -50.179688 22.859375 -49.171875 C 22.722656 -48.171875 22.65625 -47.101562 22.65625 -45.96875 C 22.65625 -44.882812 23.144531 -44.34375 24.125 -44.34375 C 25.863281 -44.34375 27.859375 -44.351562 30.109375 -44.375 C 32.367188 -44.40625 34.335938 -44.445312 36.015625 -44.5 C 36.617188 -44.5 37.132812 -44.28125 37.5625 -43.84375 C 38 -43.40625 38.21875 -42.890625 38.21875 -42.296875 L 38.21875 -37.890625 C 38.21875 -37.296875 38 -36.765625 37.5625 -36.296875 C 37.132812 -35.835938 36.617188 -35.640625 36.015625 -35.703125 C 35.316406 -35.804688 34.257812 -35.882812 32.84375 -35.9375 C 31.425781 -35.988281 30.007812 -36.039062 28.59375 -36.09375 C 27.1875 -36.15625 26.101562 -36.160156 25.34375 -36.109375 C 23.382812 -36.109375 22.269531 -35.101562 22 -33.09375 C 21.78125 -30.257812 21.671875 -27.238281 21.671875 -24.03125 C 21.671875 -20.832031 21.703125 -18.035156 21.765625 -15.640625 C 21.867188 -13.523438 22.460938 -12.019531 23.546875 -11.125 C 24.640625 -10.226562 25.972656 -9.78125 27.546875 -9.78125 C 28.203125 -9.78125 29.097656 -9.898438 30.234375 -10.140625 C 31.378906 -10.390625 32.507812 -10.691406 33.625 -11.046875 C 34.738281 -11.398438 35.535156 -11.738281 36.015625 -12.0625 C 36.722656 -12.820312 37.457031 -13.007812 38.21875 -12.625 C 38.976562 -12.25 39.332031 -11.488281 39.28125 -10.34375 C 39.28125 -9.15625 39.265625 -8.054688 39.234375 -7.046875 C 39.210938 -6.046875 39.203125 -5 39.203125 -3.90625 C 39.148438 -2.65625 38.660156 -1.816406 37.734375 -1.390625 C 36.753906 -0.953125 35.460938 -0.566406 33.859375 -0.234375 C 32.253906 0.0859375 30.632812 0.316406 29 0.453125 C 27.375 0.585938 25.992188 0.65625 24.859375 0.65625 Z M 24.859375 0.65625 "/></g></g></g><g fill="#000000" fill-opacity="1"><g transform="translate(243.90565, 78.985994)"><g><path d="M 15.234375 0.65625 C 11.109375 0.65625 7.78125 -0.320312 5.25 -2.28125 C 2.726562 -4.238281 1.46875 -7.523438 1.46875 -12.140625 C 1.46875 -16.210938 2.921875 -19.429688 5.828125 -21.796875 C 8.734375 -24.160156 12.738281 -25.78125 17.84375 -26.65625 C 22.519531 -27.300781 25.804688 -27.960938 27.703125 -28.640625 C 29.609375 -29.328125 30.5625 -30.398438 30.5625 -31.859375 C 30.5625 -32.734375 29.960938 -33.550781 28.765625 -34.3125 C 27.566406 -35.070312 25.53125 -35.453125 22.65625 -35.453125 C 20.207031 -35.453125 17.679688 -35.070312 15.078125 -34.3125 C 12.472656 -33.550781 10.191406 -32.300781 8.234375 -30.5625 C 7.628906 -29.695312 6.929688 -29.453125 6.140625 -29.828125 C 5.359375 -30.210938 4.992188 -31 5.046875 -32.1875 C 5.109375 -32.789062 5.191406 -33.617188 5.296875 -34.671875 C 5.398438 -35.734375 5.519531 -36.804688 5.65625 -37.890625 C 5.800781 -38.984375 5.898438 -39.800781 5.953125 -40.34375 C 6.109375 -41.644531 6.648438 -42.488281 7.578125 -42.875 C 12.085938 -44.28125 16.976562 -44.984375 22.25 -44.984375 C 28.5 -44.984375 33.347656 -43.640625 36.796875 -40.953125 C 40.242188 -38.265625 42.238281 -33.957031 42.78125 -28.03125 C 42.945312 -25.96875 43.109375 -23.414062 43.265625 -20.375 C 43.429688 -17.332031 43.597656 -14.234375 43.765625 -11.078125 C 43.929688 -7.929688 44.066406 -5.109375 44.171875 -2.609375 C 44.171875 -1.191406 43.410156 -0.347656 41.890625 -0.078125 C 41.347656 0.078125 40.664062 0.179688 39.84375 0.234375 C 39.03125 0.296875 38.242188 0.328125 37.484375 0.328125 C 36.835938 0.328125 36.007812 0.296875 35 0.234375 C 34 0.179688 33.171875 0.078125 32.515625 -0.078125 C 31.804688 -0.191406 31.234375 -0.503906 30.796875 -1.015625 C 30.367188 -1.535156 30.207031 -2.148438 30.3125 -2.859375 C 30.425781 -3.398438 30.550781 -4.101562 30.6875 -4.96875 C 30.820312 -5.84375 30.914062 -6.710938 30.96875 -7.578125 C 31.082031 -8.335938 30.90625 -8.785156 30.4375 -8.921875 C 29.976562 -9.054688 29.585938 -8.769531 29.265625 -8.0625 C 28.015625 -5.40625 26.082031 -3.285156 23.46875 -1.703125 C 20.863281 -0.128906 18.117188 0.65625 15.234375 0.65625 Z M 20.78125 -9.453125 C 22.132812 -9.453125 23.554688 -9.804688 25.046875 -10.515625 C 26.546875 -11.222656 27.8125 -12.238281 28.84375 -13.5625 C 29.882812 -14.894531 30.40625 -16.515625 30.40625 -18.421875 C 30.40625 -19.722656 30.007812 -20.796875 29.21875 -21.640625 C 28.425781 -22.484375 27.082031 -22.90625 25.1875 -22.90625 C 23.28125 -22.90625 21.457031 -22.550781 19.71875 -21.84375 C 17.976562 -21.132812 16.566406 -20.164062 15.484375 -18.9375 C 14.398438 -17.71875 13.859375 -16.269531 13.859375 -14.59375 C 13.859375 -12.738281 14.398438 -11.414062 15.484375 -10.625 C 16.566406 -9.84375 18.332031 -9.453125 20.78125 -9.453125 Z M 20.78125 -9.453125 "/></g></g></g><g fill="#000000" fill-opacity="1"><g transform="translate(289.948057, 78.985994)"><g><path d="M 21.765625 0.578125 C 19.859375 0.578125 17.789062 0.4375 15.5625 0.15625 C 13.332031 -0.113281 11.160156 -0.460938 9.046875 -0.890625 C 6.929688 -1.328125 5.082031 -1.789062 3.5 -2.28125 C 2.90625 -2.550781 2.414062 -2.914062 2.03125 -3.375 C 1.65625 -3.84375 1.492188 -4.429688 1.546875 -5.140625 C 1.660156 -6.492188 1.742188 -7.820312 1.796875 -9.125 C 1.847656 -10.425781 1.898438 -11.757812 1.953125 -13.125 C 2.066406 -14.320312 2.488281 -15.015625 3.21875 -15.203125 C 3.945312 -15.390625 4.585938 -15.15625 5.140625 -14.5 C 6.390625 -13.46875 7.910156 -12.53125 9.703125 -11.6875 C 11.492188 -10.851562 13.394531 -10.203125 15.40625 -9.734375 C 17.414062 -9.273438 19.316406 -9.046875 21.109375 -9.046875 C 23.878906 -9.046875 25.984375 -9.382812 27.421875 -10.0625 C 28.859375 -10.738281 29.578125 -11.867188 29.578125 -13.453125 C 29.578125 -14.640625 28.925781 -15.613281 27.625 -16.375 C 26.320312 -17.132812 24.648438 -17.8125 22.609375 -18.40625 C 20.578125 -19.007812 18.421875 -19.632812 16.140625 -20.28125 C 13.859375 -20.9375 11.695312 -21.78125 9.65625 -22.8125 C 7.613281 -23.851562 5.941406 -25.160156 4.640625 -26.734375 C 3.335938 -28.304688 2.6875 -30.316406 2.6875 -32.765625 C 2.6875 -35.421875 3.539062 -37.644531 5.25 -39.4375 C 6.96875 -41.238281 9.316406 -42.597656 12.296875 -43.515625 C 15.285156 -44.441406 18.6875 -44.90625 22.5 -44.90625 C 24.507812 -44.90625 26.84375 -44.753906 29.5 -44.453125 C 32.164062 -44.160156 34.445312 -43.710938 36.34375 -43.109375 C 37.757812 -42.566406 38.46875 -41.644531 38.46875 -40.34375 C 38.519531 -39.257812 38.546875 -38.160156 38.546875 -37.046875 C 38.546875 -35.929688 38.546875 -34.828125 38.546875 -33.734375 C 38.546875 -32.378906 38.191406 -31.617188 37.484375 -31.453125 C 36.785156 -31.296875 36.132812 -31.488281 35.53125 -32.03125 C 34.007812 -33.113281 32.132812 -34.007812 29.90625 -34.71875 C 27.675781 -35.425781 25.453125 -35.78125 23.234375 -35.78125 C 20.890625 -35.78125 18.898438 -35.410156 17.265625 -34.671875 C 15.640625 -33.941406 14.828125 -32.953125 14.828125 -31.703125 C 14.828125 -30.617188 15.476562 -29.722656 16.78125 -29.015625 C 18.09375 -28.304688 19.765625 -27.664062 21.796875 -27.09375 C 23.835938 -26.53125 26 -25.894531 28.28125 -25.1875 C 30.5625 -24.476562 32.71875 -23.59375 34.75 -22.53125 C 36.789062 -21.476562 38.460938 -20.148438 39.765625 -18.546875 C 41.078125 -16.941406 41.734375 -14.890625 41.734375 -12.390625 C 41.734375 -8.472656 40.035156 -5.332031 36.640625 -2.96875 C 33.242188 -0.601562 28.285156 0.578125 21.765625 0.578125 Z M 21.765625 0.578125 "/></g></g></g><g fill="#000000" fill-opacity="1"><g transform="translate(333.219763, 78.985994)"><g><path d="M 9.296875 0.65625 C 7.015625 0.65625 5.125 0.00390625 3.625 -1.296875 C 2.132812 -2.609375 1.390625 -4.457031 1.390625 -6.84375 C 1.390625 -9.238281 2.132812 -11.085938 3.625 -12.390625 C 5.125 -13.691406 7.015625 -14.34375 9.296875 -14.34375 C 11.628906 -14.34375 13.539062 -13.691406 15.03125 -12.390625 C 16.53125 -11.085938 17.28125 -9.210938 17.28125 -6.765625 C 17.28125 -4.429688 16.519531 -2.609375 15 -1.296875 C 13.476562 0.00390625 11.578125 0.65625 9.296875 0.65625 Z M 9.296875 0.65625 "/></g></g></g><g fill="#000000" fill-opacity="1"><g transform="translate(351.79972, 78.985994)"><g><path d="M 21.765625 0.578125 C 19.859375 0.578125 17.789062 0.4375 15.5625 0.15625 C 13.332031 -0.113281 11.160156 -0.460938 9.046875 -0.890625 C 6.929688 -1.328125 5.082031 -1.789062 3.5 -2.28125 C 2.90625 -2.550781 2.414062 -2.914062 2.03125 -3.375 C 1.65625 -3.84375 1.492188 -4.429688 1.546875 -5.140625 C 1.660156 -6.492188 1.742188 -7.820312 1.796875 -9.125 C 1.847656 -10.425781 1.898438 -11.757812 1.953125 -13.125 C 2.066406 -14.320312 2.488281 -15.015625 3.21875 -15.203125 C 3.945312 -15.390625 4.585938 -15.15625 5.140625 -14.5 C 6.390625 -13.46875 7.910156 -12.53125 9.703125 -11.6875 C 11.492188 -10.851562 13.394531 -10.203125 15.40625 -9.734375 C 17.414062 -9.273438 19.316406 -9.046875 21.109375 -9.046875 C 23.878906 -9.046875 25.984375 -9.382812 27.421875 -10.0625 C 28.859375 -10.738281 29.578125 -11.867188 29.578125 -13.453125 C 29.578125 -14.640625 28.925781 -15.613281 27.625 -16.375 C 26.320312 -17.132812 24.648438 -17.8125 22.609375 -18.40625 C 20.578125 -19.007812 18.421875 -19.632812 16.140625 -20.28125 C 13.859375 -20.9375 11.695312 -21.78125 9.65625 -22.8125 C 7.613281 -23.851562 5.941406 -25.160156 4.640625 -26.734375 C 3.335938 -28.304688 2.6875 -30.316406 2.6875 -32.765625 C 2.6875 -35.421875 3.539062 -37.644531 5.25 -39.4375 C 6.96875 -41.238281 9.316406 -42.597656 12.296875 -43.515625 C 15.285156 -44.441406 18.6875 -44.90625 22.5 -44.90625 C 24.507812 -44.90625 26.84375 -44.753906 29.5 -44.453125 C 32.164062 -44.160156 34.445312 -43.710938 36.34375 -43.109375 C 37.757812 -42.566406 38.46875 -41.644531 38.46875 -40.34375 C 38.519531 -39.257812 38.546875 -38.160156 38.546875 -37.046875 C 38.546875 -35.929688 38.546875 -34.828125 38.546875 -33.734375 C 38.546875 -32.378906 38.191406 -31.617188 37.484375 -31.453125 C 36.785156 -31.296875 36.132812 -31.488281 35.53125 -32.03125 C 34.007812 -33.113281 32.132812 -34.007812 29.90625 -34.71875 C 27.675781 -35.425781 25.453125 -35.78125 23.234375 -35.78125 C 20.890625 -35.78125 18.898438 -35.410156 17.265625 -34.671875 C 15.640625 -33.941406 14.828125 -32.953125 14.828125 -31.703125 C 14.828125 -30.617188 15.476562 -29.722656 16.78125 -29.015625 C 18.09375 -28.304688 19.765625 -27.664062 21.796875 -27.09375 C 23.835938 -26.53125 26 -25.894531 28.28125 -25.1875 C 30.5625 -24.476562 32.71875 -23.59375 34.75 -22.53125 C 36.789062 -21.476562 38.460938 -20.148438 39.765625 -18.546875 C 41.078125 -16.941406 41.734375 -14.890625 41.734375 -12.390625 C 41.734375 -8.472656 40.035156 -5.332031 36.640625 -2.96875 C 33.242188 -0.601562 28.285156 0.578125 21.765625 0.578125 Z M 21.765625 0.578125 "/></g></g></g><g fill="#000000" fill-opacity="1"><g transform="translate(395.071426, 78.985994)"><g><path d="M 8.640625 0.328125 C 7.929688 0.328125 7.140625 0.285156 6.265625 0.203125 C 5.398438 0.117188 4.613281 0.0507812 3.90625 0 C 3.414062 -0.101562 2.992188 -0.34375 2.640625 -0.71875 C 2.296875 -1.101562 2.125 -1.648438 2.125 -2.359375 C 2.125 -7.304688 2.160156 -12.332031 2.234375 -17.4375 C 2.316406 -22.550781 2.410156 -27.507812 2.515625 -32.3125 C 2.628906 -37.125 2.78125 -41.609375 2.96875 -45.765625 C 3.164062 -49.921875 3.375 -53.519531 3.59375 -56.5625 C 3.695312 -57.8125 4.265625 -58.519531 5.296875 -58.6875 C 5.890625 -58.789062 6.550781 -58.867188 7.28125 -58.921875 C 8.019531 -58.972656 8.742188 -59 9.453125 -59 C 10.210938 -59 11.023438 -58.972656 11.890625 -58.921875 C 12.765625 -58.867188 13.582031 -58.789062 14.34375 -58.6875 C 14.882812 -58.625 15.34375 -58.398438 15.71875 -58.015625 C 16.101562 -57.640625 16.242188 -57.15625 16.140625 -56.5625 C 15.867188 -54.0625 15.582031 -51.289062 15.28125 -48.25 C 14.976562 -45.207031 14.773438 -41.921875 14.671875 -38.390625 C 14.671875 -37.460938 14.832031 -36.90625 15.15625 -36.71875 C 15.476562 -36.53125 15.914062 -36.84375 16.46875 -37.65625 C 18.363281 -40.257812 20.410156 -42.128906 22.609375 -43.265625 C 24.816406 -44.410156 27.332031 -44.984375 30.15625 -44.984375 C 33.46875 -44.984375 36.414062 -44.113281 39 -42.375 C 41.582031 -40.632812 43.644531 -38.148438 45.1875 -34.921875 C 46.738281 -31.691406 47.597656 -27.847656 47.765625 -23.390625 C 47.867188 -21.273438 47.972656 -19.222656 48.078125 -17.234375 C 48.191406 -15.253906 48.273438 -13.09375 48.328125 -10.75 C 48.378906 -8.414062 48.40625 -5.644531 48.40625 -2.4375 C 48.40625 -1.738281 48.210938 -1.195312 47.828125 -0.8125 C 47.453125 -0.4375 46.992188 -0.191406 46.453125 -0.078125 C 45.804688 -0.0234375 45.070312 0.0390625 44.25 0.125 C 43.4375 0.207031 42.757812 0.25 42.21875 0.25 C 41.726562 0.25 40.953125 0.21875 39.890625 0.15625 C 38.835938 0.101562 37.925781 0.0234375 37.15625 -0.078125 C 36.613281 -0.191406 36.140625 -0.4375 35.734375 -0.8125 C 35.328125 -1.195312 35.148438 -1.710938 35.203125 -2.359375 C 35.421875 -4.265625 35.582031 -6.332031 35.6875 -8.5625 C 35.800781 -10.789062 35.882812 -12.960938 35.9375 -15.078125 C 35.988281 -17.191406 36.015625 -18.957031 36.015625 -20.375 C 35.910156 -24.71875 34.878906 -28.179688 32.921875 -30.765625 C 30.960938 -33.347656 28.328125 -34.640625 25.015625 -34.640625 C 21.867188 -34.640625 19.289062 -33.332031 17.28125 -30.71875 C 15.269531 -28.113281 14.265625 -24.613281 14.265625 -20.21875 C 14.316406 -17.875 14.394531 -15.054688 14.5 -11.765625 C 14.613281 -8.484375 14.859375 -5.320312 15.234375 -2.28125 C 15.347656 -1.625 15.203125 -1.101562 14.796875 -0.71875 C 14.390625 -0.34375 13.910156 -0.101562 13.359375 0 C 12.765625 0.0507812 11.988281 0.117188 11.03125 0.203125 C 10.082031 0.285156 9.285156 0.328125 8.640625 0.328125 Z M 8.640625 0.328125 "/></g></g></g><g fill="#000000" fill-opacity="1"><g transform="translate(444.943863, 78.985994)"><g><path d="M 24.28125 0.65625 C 19.9375 0.65625 16.039062 -0.171875 12.59375 -1.828125 C 9.144531 -3.484375 6.425781 -5.984375 4.4375 -9.328125 C 2.457031 -12.671875 1.46875 -16.84375 1.46875 -21.84375 C 1.46875 -26.726562 2.441406 -30.894531 4.390625 -34.34375 C 6.347656 -37.800781 9.050781 -40.4375 12.5 -42.25 C 15.957031 -44.070312 19.882812 -44.984375 24.28125 -44.984375 C 28.6875 -44.984375 32.585938 -44.070312 35.984375 -42.25 C 39.378906 -40.4375 42.050781 -37.800781 44 -34.34375 C 45.957031 -30.894531 46.9375 -26.726562 46.9375 -21.84375 C 46.9375 -16.84375 45.957031 -12.671875 44 -9.328125 C 42.050781 -5.984375 39.363281 -3.484375 35.9375 -1.828125 C 32.519531 -0.171875 28.632812 0.65625 24.28125 0.65625 Z M 24.28125 -8.96875 C 27.488281 -8.96875 30.140625 -10.109375 32.234375 -12.390625 C 34.328125 -14.671875 35.375 -17.957031 35.375 -22.25 C 35.375 -26.320312 34.335938 -29.523438 32.265625 -31.859375 C 30.203125 -34.203125 27.539062 -35.375 24.28125 -35.375 C 20.96875 -35.375 18.289062 -34.203125 16.25 -31.859375 C 14.21875 -29.523438 13.203125 -26.320312 13.203125 -22.25 C 13.203125 -17.957031 14.25 -14.671875 16.34375 -12.390625 C 18.4375 -10.109375 21.082031 -8.96875 24.28125 -8.96875 Z M 24.28125 -8.96875 "/></g></g></g><g clip-path="url(#0d39c037c5)"><g fill="#000000" fill-opacity="1"><g transform="translate(491.719407, 78.985994)"><g><path d="M 7.984375 19.078125 C 7.609375 19.078125 6.957031 19.035156 6.03125 18.953125 C 5.101562 18.867188 4.34375 18.800781 3.75 18.75 C 2.601562 18.582031 2.03125 17.898438 2.03125 16.703125 C 2.03125 13.335938 2.046875 9.289062 2.078125 4.5625 C 2.109375 -0.164062 2.191406 -5.234375 2.328125 -10.640625 C 2.460938 -16.046875 2.625 -21.453125 2.8125 -26.859375 C 3 -32.265625 3.257812 -37.328125 3.59375 -42.046875 C 3.695312 -43.410156 4.347656 -44.175781 5.546875 -44.34375 C 6.191406 -44.445312 6.976562 -44.523438 7.90625 -44.578125 C 8.832031 -44.628906 9.484375 -44.65625 9.859375 -44.65625 C 10.242188 -44.65625 10.960938 -44.628906 12.015625 -44.578125 C 13.078125 -44.523438 13.90625 -44.445312 14.5 -44.34375 C 15.050781 -44.28125 15.5 -44.046875 15.84375 -43.640625 C 16.195312 -43.234375 16.320312 -42.703125 16.21875 -42.046875 C 16.113281 -41.503906 16.003906 -40.9375 15.890625 -40.34375 C 15.785156 -39.75 15.703125 -39.207031 15.640625 -38.71875 C 15.585938 -37.894531 15.75 -37.425781 16.125 -37.3125 C 16.507812 -37.207031 16.894531 -37.507812 17.28125 -38.21875 C 18.75 -40.226562 20.675781 -41.859375 23.0625 -43.109375 C 25.457031 -44.359375 27.875 -44.984375 30.3125 -44.984375 C 33.738281 -44.984375 36.769531 -44.140625 39.40625 -42.453125 C 42.039062 -40.773438 44.101562 -38.273438 45.59375 -34.953125 C 47.09375 -31.640625 47.84375 -27.488281 47.84375 -22.5 C 47.84375 -17.65625 47.039062 -13.492188 45.4375 -10.015625 C 43.832031 -6.546875 41.65625 -3.898438 38.90625 -2.078125 C 36.164062 -0.253906 33.085938 0.65625 29.671875 0.65625 C 26.785156 0.65625 24.09375 -0.0078125 21.59375 -1.34375 C 19.09375 -2.675781 17.164062 -4.507812 15.8125 -6.84375 C 15.425781 -7.550781 15.054688 -7.835938 14.703125 -7.703125 C 14.359375 -7.566406 14.15625 -7.09375 14.09375 -6.28125 C 14.039062 -4.757812 14.023438 -2.960938 14.046875 -0.890625 C 14.078125 1.171875 14.132812 3.285156 14.21875 5.453125 C 14.300781 7.628906 14.410156 9.695312 14.546875 11.65625 C 14.679688 13.613281 14.832031 15.269531 15 16.625 C 15.101562 17.21875 14.953125 17.691406 14.546875 18.046875 C 14.140625 18.398438 13.664062 18.632812 13.125 18.75 C 12.519531 18.800781 11.617188 18.867188 10.421875 18.953125 C 9.234375 19.035156 8.421875 19.078125 7.984375 19.078125 Z M 25.34375 -9.125 C 28.550781 -9.125 31.171875 -10.28125 33.203125 -12.59375 C 35.242188 -14.90625 36.265625 -18.070312 36.265625 -22.09375 C 36.265625 -26.269531 35.234375 -29.523438 33.171875 -31.859375 C 31.109375 -34.203125 28.5 -35.375 25.34375 -35.375 C 22.300781 -35.375 19.71875 -34.203125 17.59375 -31.859375 C 15.476562 -29.523438 14.421875 -26.269531 14.421875 -22.09375 C 14.421875 -18.070312 15.453125 -14.90625 17.515625 -12.59375 C 19.585938 -10.28125 22.195312 -9.125 25.34375 -9.125 Z M 25.34375 -9.125 "/></g></g></g></g></g></g></svg>